<svg width="128" height="128" viewBox="0 0 128 128" fill="none" xmlns="http://www.w3.org/2000/svg">
<path d="M109.01 28.6383L71.2802 6.23828C69.0302 4.90828 66.5102 4.23828 64.0002 4.23828C61.4902 4.23828 58.9702 4.90828 56.7202 6.24828L18.9802 28.6483C14.4802 31.3183 11.7002 36.2583 11.7002 41.6083V86.4083C11.7002 91.7583 14.4702 96.6983 18.9802 99.3683L56.7102 121.768C58.9602 123.108 61.4702 123.768 63.9902 123.768C66.5002 123.768 69.0202 123.098 71.2702 121.768L109.01 99.3683C113.51 96.6983 116.29 91.7483 116.29 86.4083V41.5983C116.29 36.2583 113.52 31.3083 109.01 28.6383V28.6383ZM79.7902 98.5883L79.8502 101.808C79.8502 102.198 79.6002 102.638 79.3002 102.798L77.3902 103.898C77.0902 104.048 76.8302 103.868 76.8302 103.478L76.8002 100.308C75.1702 100.988 73.5102 101.148 72.4602 100.728C72.2602 100.648 72.1702 100.358 72.2502 100.018L72.9402 97.1083C73.0002 96.8783 73.1202 96.6483 73.2802 96.5083C73.3402 96.4483 73.4002 96.4083 73.4602 96.3783C73.5702 96.3183 73.6802 96.3083 73.7702 96.3483C74.9102 96.7283 76.3602 96.5483 77.7602 95.8483C79.5402 94.9483 80.7302 93.1283 80.7102 91.3283C80.6902 89.6883 79.8102 89.0183 77.6602 88.9983C74.9202 89.0083 72.3602 88.4683 72.3202 84.4283C72.2902 81.1083 74.0102 77.6483 76.7502 75.4683L76.7202 72.2183C76.7202 71.8183 76.9602 71.3783 77.2702 71.2183L79.1202 70.0383C79.4202 69.8883 79.6802 70.0783 79.6802 70.4683L79.7102 73.7183C81.0702 73.1783 82.2502 73.0283 83.3202 73.2783C83.5502 73.3383 83.6602 73.6583 83.5602 74.0283L82.8402 76.9083C82.7802 77.1283 82.6602 77.3483 82.5102 77.4883C82.4544 77.5444 82.3903 77.5917 82.3202 77.6283C82.2202 77.6783 82.1302 77.6883 82.0402 77.6783C81.5502 77.5683 80.3902 77.3183 78.5602 78.2383C76.6402 79.2083 75.9702 80.8783 75.9802 82.1183C76.0002 83.5983 76.7502 84.0483 79.3702 84.0883C82.8602 84.1483 84.3602 85.6683 84.4002 89.1783C84.4502 92.6183 82.6102 96.3283 79.7902 98.5883V98.5883ZM106.13 38.0883L70.4302 60.1383C65.9802 62.7383 62.7002 65.6583 62.6902 71.0283V115.018C62.6902 118.228 63.9902 120.308 65.9802 120.918C65.3302 121.028 64.6602 121.108 64.0002 121.108C61.9102 121.108 59.8502 120.538 58.0402 119.468L20.3102 97.0683C16.6202 94.8783 14.3302 90.7883 14.3302 86.3983V41.5983C14.3302 37.2083 16.6202 33.1183 20.3102 30.9283L58.0502 8.52828C59.8602 7.45828 61.9202 6.88828 64.0102 6.88828C66.1002 6.88828 68.1602 7.45828 69.9702 8.52828L107.71 30.9283C110.82 32.7783 112.92 35.9683 113.51 39.5583C112.24 36.8883 109.42 36.1683 106.13 38.0883Z" fill="#293138"/>
<path d="M99.12 90.7301L89.72 96.3501C89.47 96.5001 89.29 96.6601 89.29 96.9601V99.4201C89.29 99.7201 89.49 99.8501 89.74 99.7001L99.28 93.9001C99.53 93.7501 99.57 93.4801 99.57 93.1801V91.0101C99.57 90.7101 99.37 90.5901 99.12 90.7301Z" fill="#4FA847"/>
</svg>
