<svg width="198" height="148" viewBox="0 0 198 148" fill="none" xmlns="http://www.w3.org/2000/svg">
<g clip-path="url(#clip0_134_65)">
<path d="M167.221 68.4096C167.205 68.4099 167.19 68.4096 167.174 68.4096C166.193 71.4771 165.435 74.8093 165.291 78.6049C165.02 85.7312 165.744 90.0688 164.924 94.685C164.103 99.3013 161.678 103.846 155.51 110.972C148.167 119.454 136.531 126.017 123.09 128.236C120.588 129.833 117.947 131.297 115.17 132.599C125.631 136.538 136.572 136.752 145.246 133.906C160.525 128.892 159.342 125.29 166.189 114.798C168.346 111.493 170.837 108.97 173.338 106.898C180.462 110.005 187.481 111.999 191.853 111.505C194.204 106.055 191.796 99.7341 187.795 93.7592C191.077 83.5632 186.096 73.3532 175.064 69.7435C172.187 68.802 169.601 68.3592 167.22 68.4057L167.221 68.4096ZM175.496 83.3803C176.103 83.3677 176.702 83.4859 177.254 83.7269C177.806 83.968 178.297 84.3261 178.693 84.7768C179.055 85.1878 179.33 85.6672 179.504 86.1879C179.678 86.7085 179.746 87.2602 179.705 87.8112C179.665 88.3622 179.516 88.9019 179.267 89.3993C179.018 89.8968 178.675 90.3422 178.256 90.7103C177.41 91.4537 176.309 91.8369 175.196 91.7758C174.082 91.7146 173.046 91.214 172.316 90.3842C171.955 89.9732 171.68 89.4937 171.506 88.973C171.332 88.4524 171.264 87.9008 171.304 87.3497C171.345 86.7987 171.494 86.2591 171.743 85.7616C171.991 85.2642 172.335 84.8187 172.754 84.4506C173.516 83.7806 174.489 83.4009 175.496 83.3803ZM107.121 128.759C107.248 128.834 107.378 128.9 107.506 128.974C107.637 128.925 107.77 128.873 107.9 128.824C107.641 128.801 107.382 128.784 107.121 128.759Z" fill="#787878"/>
<path d="M112.336 5.00038C106.363 4.96538 100.238 7.34836 94.9746 12.4594C88.0617 19.1721 85.9145 25.2149 87.127 32.7543L87.459 34.8226L85.3926 34.4867C70.2049 32.0258 51.4079 33.2689 30.0215 41.9203C36.3083 44.6151 47.8473 49.1129 60.6523 55.2621L64.7129 57.2133L60.2988 58.1078C43.3901 61.5352 23.326 71.4353 5 93.0414C13.1981 92.4042 29.953 90.4325 47.4277 90.4594C57.1415 90.4744 66.7147 91.1463 74.5137 93.1683C82.3128 95.1903 89.401 99.8181 90.3997 103.209C91.3984 106.6 90.8318 108.385 89.8479 111.037C88.864 113.69 85.8381 117.719 81.6526 120.379C77.4671 123.039 72.1565 125.364 66.6389 127.34C55.6037 131.292 43.8591 133.818 38.6741 134.299C37.572 134.402 37.132 134.797 36.7073 135.569C36.2826 136.34 36.0483 137.551 36.0139 138.819C35.9679 140.511 36.2308 141.395 36.7087 142.065C37.1866 142.735 37.9331 143.003 38.7022 143.055C71.2844 145.26 95.6463 137.064 113.34 130.043C133.691 120.712 146.554 102.286 149.346 85.6957C151.096 75.3007 150.72 70.2063 149.033 65.8676C147.346 61.5289 144.111 57.6761 140.008 50.3187C137.371 45.5906 135.9 40.9517 134.989 36.6312L134.795 35.7211L135.522 35.139C143.062 29.0944 149.203 22.4946 151.432 17.6898C146.858 12.825 138.953 11.7969 130.11 12.7426L129.383 12.8185L128.871 12.297C124.159 7.49641 118.31 5.03588 112.336 5.00038ZM114.984 16.2328C117.577 16.1918 119.865 17.9894 120.486 20.5551C121.217 23.5767 119.405 26.6076 116.439 27.3246C113.474 28.0422 110.477 26.1744 109.746 23.1527C109.015 20.1311 110.827 17.1002 113.793 16.3832C114.183 16.2892 114.583 16.2387 114.984 16.2328Z" fill="#ECECEC"/>
<path d="M152.084 29.3915C150.174 29.3525 148.173 29.5535 146.106 30.0243C145.967 30.0563 145.845 30.0952 145.708 30.1278C143.434 32.3759 140.895 34.6325 138.178 36.8446C139.053 40.7043 140.352 44.7275 142.649 48.8465C146.636 55.996 149.923 59.8122 151.852 64.7723C153.781 69.7324 154.116 75.5668 152.327 86.1961C150.108 99.3741 142.086 113.329 129.368 123.63C139.239 120.751 147.654 115.438 153.225 109.003C159.238 102.056 161.244 98.1267 161.948 94.1669C162.651 90.2071 161.992 85.8671 162.272 78.5028C162.452 73.7581 163.463 69.6071 164.749 65.9579L165.057 65.0829L165.979 64.9618C174.207 63.8945 181.644 61.7947 185.489 59.3133C184.254 53.7611 179.008 49.4531 172.061 46.1786L171.399 45.8661L171.233 45.1532C169.03 35.6918 161.642 29.59 152.084 29.3915ZM156.868 41.077C157.359 41.0765 157.847 41.1523 158.315 41.3016C159.533 41.6911 160.544 42.5575 161.125 43.7105C161.706 44.8636 161.809 46.2088 161.413 47.4501C161.216 48.0648 160.903 48.6353 160.49 49.1295C160.078 49.6236 159.575 50.0316 159.01 50.3299C158.444 50.6283 157.827 50.8114 157.195 50.8685C156.562 50.9256 155.926 50.8557 155.323 50.6629C154.105 50.2734 153.094 49.4068 152.513 48.2538C151.932 47.1007 151.828 45.7558 152.225 44.5145C152.543 43.5185 153.165 42.6481 154 42.0299C154.835 41.4117 155.84 41.0779 156.868 41.077Z" fill="#B2B2B2"/>
</g>
<defs>
<clipPath id="clip0_134_65">
<rect width="198" height="148" fill="white"/>
</clipPath>
</defs>
</svg>
