<svg width="128" height="128" viewBox="0 0 128 128" fill="none" xmlns="http://www.w3.org/2000/svg">
<path d="M115.4 30.6992L67.1 2.89922C66.3 2.39922 65.2 2.19922 64 2.19922C62.8 2.19922 61.7 2.49922 60.9 2.89922L12.9 30.7992C11.2 31.7992 10 34.2992 10 36.1992V91.8992C10 92.9992 10.2 94.2992 11 95.3992L117.8 33.3992C117.2 32.1992 116.3 31.2992 115.4 30.6992V30.6992Z" fill="#659AD3"/>
<path d="M10.7002 95.3008C11.2002 96.1008 11.9002 96.8008 12.6002 97.2008L60.8002 125.101C61.6002 125.601 62.7002 125.801 63.9002 125.801C65.1002 125.801 66.2002 125.501 67.0002 125.101L115 97.2008C116.7 96.2008 117.9 93.7008 117.9 91.8008V36.1008C117.9 35.2008 117.8 34.2008 117.3 33.3008L10.7002 95.3008V95.3008Z" fill="#03599C"/>
<path d="M85.3 76.1C81.1 83.5 73.1 88.5 64 88.5C50.5 88.5 39.5 77.5 39.5 64C39.5 50.5 50.5 39.5 64 39.5C73.1 39.5 81.1 44.5 85.3 52L98.3 44.5C91.5 32.6 78.7 24.5 64 24.5C42.2 24.5 24.5 42.2 24.5 64C24.5 85.8 42.2 103.5 64 103.5C78.6 103.5 91.4 95.5 98.2 83.7L85.3 76.1V76.1Z" fill="white"/>
</svg>
