<svg width="128" height="128" viewBox="0 0 128 128" fill="none" xmlns="http://www.w3.org/2000/svg">
<path d="M18.8138 114.123L8.75977 1.35156H119.24L109.176 114.106L63.9328 126.649L18.8138 114.123V114.123Z" fill="#1572B6"/>
<path d="M64.001 117.06L100.56 106.924L109.161 10.5703H64.001V117.06Z" fill="#33A9DC"/>
<path d="M64.001 51.4276H82.303L83.567 37.2646H64.001V23.4336H98.683L98.351 27.1446L94.951 65.2586H64.001V51.4276Z" fill="white"/>
<path d="M64.083 87.3478L64.022 87.3658L48.619 83.2068L47.634 72.1758H33.752L35.689 93.8928L64.02 101.756L64.083 101.738V87.3478V87.3478Z" fill="#EBEBEB"/>
<path d="M81.1272 64.6758L79.4612 83.1978L64.0352 87.3618V101.752L92.3892 93.8938L92.5972 91.5568L95.0032 64.6758H81.1272Z" fill="white"/>
<path d="M64.0483 23.4336V37.2646H30.6403L30.3633 34.1566L29.7333 27.1446L29.4023 23.4336H64.0483V23.4336ZM64.0013 51.4296V65.2606H48.7923L48.5153 62.1526L47.8843 55.1406L47.5543 51.4296H64.0013V51.4296Z" fill="#EBEBEB"/>
</svg>
