<svg width="128" height="128" viewBox="0 0 128 128" fill="none" xmlns="http://www.w3.org/2000/svg">
<path fill-rule="evenodd" clip-rule="evenodd" d="M73.7999 50.8008H85.0998V62.3008H90.7999C93.3999 62.3008 96.0998 61.8008 98.5998 61.0008C99.7998 60.6008 101.2 60.0008 102.4 59.3008C100.8 57.2008 99.9999 54.6008 99.7999 52.0008C99.4999 48.5008 100.2 43.9008 102.6 41.2008L103.8 39.8008L105.2 40.9008C108.8 43.8008 111.7 47.7008 112.3 52.3008C116.6 51.0008 121.6 51.3008 125.4 53.5008L126.9 54.4008L126.1 56.0008C122.9 62.2008 116.2 64.2008 109.7 63.8008C99.8998 88.1008 78.6999 99.6008 52.8999 99.6008C39.5999 99.6008 27.3999 94.6008 20.3999 82.8008L20.2999 82.6008L19.2999 80.5008C16.8999 75.3008 16.1999 69.6008 16.6999 63.9008L16.8999 62.2008H26.4999V50.8008H37.7999V39.6008H60.2999V28.3008H73.7999V50.8008V50.8008Z" fill="#3A4D54"/>
<path d="M110.4 55.0984C111.2 49.1984 106.8 44.5984 104 42.3984C100.9 45.9984 100.4 55.5984 105.3 59.5984C102.5 61.9984 96.8 64.2984 90.8 64.2984H18.6C18 70.4984 19.1 76.1984 21.6 81.0984L22.4 82.5984C22.9 83.4984 23.5 84.2984 24.1 85.1984C27.1 85.3984 29.8 85.4984 32.3 85.3984C37.2 85.2984 41.2 84.6984 44.3 83.6984C44.8 83.4984 45.2 83.7984 45.4 84.1984C45.6 84.6984 45.3 85.0984 44.9 85.2984C44.5 85.3984 44.1 85.5984 43.6 85.6984C41.2 86.3984 38.6 86.7984 35.3 86.9984H34.7C33.4 87.0984 32 87.0984 30.5 87.0984C28.9 87.0984 27.4 87.0984 25.6 86.9984C31.6 93.7984 41 97.7984 52.8 97.7984C77.8 97.7984 99 86.6984 108.3 61.8984C115 62.5984 121.4 60.8984 124.3 55.1984C119.8 52.4984 113.8 53.3984 110.4 55.0984V55.0984Z" fill="#00AADA"/>
<path d="M110.4 55.0984C111.2 49.1984 106.8 44.5984 104 42.3984C100.9 45.9984 100.4 55.5984 105.3 59.5984C102.5 61.9984 96.8001 64.2984 90.8001 64.2984H22.8001C22.5001 73.7984 26.0001 80.9984 32.3001 85.2984C37.2001 85.1984 41.2001 84.5984 44.3001 83.5984C44.8001 83.3984 45.2001 83.6984 45.4001 84.0984C45.6001 84.5984 45.3001 84.9984 44.9001 85.1984C44.5001 85.2984 44.1001 85.4984 43.6001 85.5984C41.2001 86.2984 38.4001 86.7984 35.1001 86.9984L35.0001 86.8984C43.5001 91.2984 55.8001 91.1984 70.0001 85.7984C85.8001 79.6984 100.6 68.0984 110.9 54.8984C110.7 54.9984 110.5 54.9984 110.4 55.0984V55.0984Z" fill="#28B8EB"/>
<path d="M18.7002 71.8008C19.1002 75.1008 20.1002 78.2008 21.6002 81.1008L22.4002 82.6008C22.9002 83.5008 23.5002 84.3008 24.1002 85.2008C27.1002 85.4008 29.8002 85.5008 32.3002 85.4008C37.2002 85.3008 41.2002 84.7008 44.3002 83.7008C44.8002 83.5008 45.2002 83.8008 45.4002 84.2008C45.6002 84.7008 45.3002 85.1008 44.9002 85.3008C44.5002 85.4008 44.1002 85.6008 43.6002 85.7008C41.2002 86.4008 38.4002 86.9008 35.1002 87.1008H34.7002C33.4002 87.2008 32.0002 87.2008 30.6002 87.2008C29.0002 87.2008 27.4002 87.2008 25.7002 87.1008C31.7002 93.9008 41.2002 97.9008 53.0002 97.9008C74.4002 97.9008 93.0002 89.8008 103.8 71.9008H18.7002V71.8008Z" fill="#028BB8"/>
<path d="M23.5 71.8008C24.8 77.6008 27.8 82.2008 32.3 85.3008C37.2 85.2008 41.2 84.6008 44.3 83.6008C44.8 83.4008 45.2 83.7008 45.4 84.1008C45.6 84.6008 45.3 85.0008 44.9 85.2008C44.5 85.3008 44.1 85.5008 43.6 85.6008C41.2 86.3008 38.4 86.8008 35 87.0008C43.5 91.4008 55.8 91.3008 69.9 85.9008C78.4 82.6008 86.7 77.7008 94.1 71.8008H23.5V71.8008Z" fill="#019BC6"/>
<path fill-rule="evenodd" clip-rule="evenodd" d="M28.4004 52.7H38.2004V62.5H28.4004V52.7V52.7ZM29.2004 53.5H30.0004V61.6H29.2004V53.5ZM30.6004 53.5H31.4004V61.6H30.6004V53.5ZM32.1004 53.5H32.9004V61.6H32.1004V53.5ZM33.6004 53.5H34.4004V61.6H33.6004V53.5ZM35.1004 53.5H35.9004V61.6H35.1004V53.5ZM36.6004 53.5H37.4004V61.6H36.6004V53.5ZM39.6004 41.5H49.4004V51.3H39.6004V41.5ZM40.5004 42.3H41.3004V50.4H40.5004V42.3ZM41.9004 42.3H42.7004V50.4H41.9004V42.3ZM43.4004 42.3H44.2004V50.4H43.4004V42.3ZM44.9004 42.3H45.7004V50.4H44.9004V42.3ZM46.3004 42.3H47.1004V50.4H46.3004V42.3ZM47.8004 42.3H48.6004V50.4H47.8004V42.3Z" fill="#00ACD3"/>
<path fill-rule="evenodd" clip-rule="evenodd" d="M39.5996 52.6992H49.3996V62.4992H39.5996V52.6992V52.6992ZM40.4996 53.4992H41.2996V61.5992H40.4996V53.4992ZM41.8996 53.4992H42.6996V61.5992H41.8996V53.4992ZM43.3996 53.4992H44.1996V61.5992H43.3996V53.4992ZM44.8996 53.4992H45.6996V61.5992H44.8996V53.4992ZM46.2996 53.4992H47.0996V61.5992H46.2996V53.4992ZM47.7996 53.4992H48.5996V61.5992H47.7996V53.4992Z" fill="#23C2EE"/>
<path fill-rule="evenodd" clip-rule="evenodd" d="M50.9004 52.6992H60.7004V62.4992H50.9004V52.6992V52.6992ZM51.7004 53.4992H52.5004V61.5992H51.7004V53.4992ZM53.2004 53.4992H54.0004V61.5992H53.2004V53.4992ZM54.7004 53.4992H55.5004V61.5992H54.7004V53.4992ZM56.1004 53.4992H56.9004V61.5992H56.1004V53.4992ZM57.6004 53.4992H58.4004V61.5992H57.6004V53.4992ZM59.1004 53.4992H59.9004V61.5992H59.1004V53.4992Z" fill="#00ACD3"/>
<path fill-rule="evenodd" clip-rule="evenodd" d="M50.9004 41.5H60.7004V51.3H50.9004V41.5V41.5ZM51.7004 42.3H52.5004V50.4H51.7004V42.3ZM53.2004 42.3H54.0004V50.4H53.2004V42.3ZM54.7004 42.3H55.5004V50.4H54.7004V42.3ZM56.1004 42.3H56.9004V50.4H56.1004V42.3ZM57.6004 42.3H58.4004V50.4H57.6004V42.3ZM59.1004 42.3H59.9004V50.4H59.1004V42.3ZM62.2004 52.7H72.0004V62.5H62.2004V52.7V52.7ZM63.0004 53.5H63.8004V61.6H63.0004V53.5V53.5ZM64.5004 53.5H65.3004V61.6H64.5004V53.5ZM65.9004 53.5H66.7004V61.6H65.9004V53.5ZM67.4004 53.5H68.2004V61.6H67.4004V53.5ZM68.9004 53.5H69.7004V61.6H68.9004V53.5ZM70.4004 53.5H71.2004V61.6H70.4004V53.5Z" fill="#23C2EE"/>
<path fill-rule="evenodd" clip-rule="evenodd" d="M62.2002 41.5H72.0002V51.3H62.2002V41.5ZM63.0002 42.3H63.8002V50.4H63.0002V42.3ZM64.5002 42.3H65.3002V50.4H64.5002V42.3ZM65.9002 42.3H66.7002V50.4H65.9002V42.3ZM67.4002 42.3H68.2002V50.4H67.4002V42.3ZM68.9002 42.3H69.7002V50.4H68.9002V42.3ZM70.4002 42.3H71.2002V50.4H70.4002V42.3Z" fill="#00ACD3"/>
<path fill-rule="evenodd" clip-rule="evenodd" d="M62.2002 30.1992H72.0002V39.9992H62.2002V30.1992ZM63.0002 30.9992H63.8002V39.0992H63.0002V30.9992ZM64.5002 30.9992H65.3002V39.0992H64.5002V30.9992ZM65.9002 30.9992H66.7002V39.0992H65.9002V30.9992ZM67.4002 30.9992H68.2002V39.0992H67.4002V30.9992ZM68.9002 30.9992H69.7002V39.0992H68.9002V30.9992ZM70.4002 30.9992H71.2002V39.0992H70.4002V30.9992Z" fill="#23C2EE"/>
<path fill-rule="evenodd" clip-rule="evenodd" d="M73.5 52.6992H83.3V62.4992H73.5V52.6992ZM74.3 53.4992H75.1V61.5992H74.3V53.4992ZM75.7 53.4992H76.5V61.5992H75.7V53.4992ZM77.2 53.4992H78V61.5992H77.2V53.4992ZM78.7 53.4992H79.5V61.5992H78.7V53.4992ZM80.2 53.4992H81V61.5992H80.2V53.4992ZM81.7 53.4992H82.5V61.5992H81.7V53.4992Z" fill="#00ACD3"/>
<path fill-rule="evenodd" clip-rule="evenodd" d="M48.7996 78.3008C50.2996 78.3008 51.4996 79.5008 51.4996 81.0008C51.4996 82.5008 50.2996 83.7008 48.7996 83.7008C47.2996 83.7008 46.0996 82.5008 46.0996 81.0008C46.0996 79.5008 47.2996 78.3008 48.7996 78.3008Z" fill="#D4EEF1"/>
<path fill-rule="evenodd" clip-rule="evenodd" d="M48.7996 79.1016C48.9996 79.1016 49.2996 79.1016 49.4996 79.2016C49.2996 79.3016 49.0996 79.6016 49.0996 79.9016C49.0996 80.3016 49.4996 80.7016 49.8996 80.7016C50.1996 80.7016 50.4996 80.5016 50.5996 80.3016C50.6996 80.5016 50.6996 80.8016 50.6996 81.0016C50.6996 82.1016 49.7996 82.9016 48.7996 82.9016C47.6996 82.9016 46.8996 82.0016 46.8996 81.0016C46.8996 80.0016 47.6996 79.1016 48.7996 79.1016M1.09961 72.8016H126.5C123.8 72.1016 117.9 71.2016 118.8 67.6016C113.8 73.3016 101.9 71.6016 98.7996 68.8016C95.3996 73.7016 75.7996 71.8016 74.4996 68.0016C70.2996 73.0016 57.1996 73.0016 52.9996 68.0016C51.5996 71.8016 31.9996 73.7016 28.6996 68.8016C25.6996 71.6016 13.6996 73.3016 8.69961 67.6016C9.79961 71.1016 3.79961 72.1016 1.09961 72.8016" fill="#3A4D54"/>
<path d="M56.0004 97.8016C49.3004 94.6016 45.7004 90.3016 43.6004 85.6016C41.1004 86.3016 38.1004 86.8016 34.7004 87.0016C33.4004 87.1016 32.0004 87.1016 30.6004 87.1016C28.9004 87.1016 27.2004 87.1016 25.4004 87.0016C31.4004 93.0016 39.0004 97.7016 52.9004 97.8016H56.0004Z" fill="#BFDBE0"/>
<path d="M46.1002 89.9016C45.2002 88.6016 44.3002 87.1016 43.6002 85.6016C41.1002 86.3016 38.1002 86.8016 34.7002 87.0016C37.0002 88.2016 40.4002 89.4016 46.1002 89.9016V89.9016Z" fill="#D4EEF1"/>
</svg>
