<svg width="128" height="128" viewBox="0 0 128 128" fill="none" xmlns="http://www.w3.org/2000/svg">
<path d="M49.0699 32.663C34.6999 30.043 23.3499 32.783 18.8199 40.663C15.4399 46.513 16.4099 54.273 21.1599 62.563C21.2564 62.7311 21.3851 62.8785 21.5386 62.9968C21.6921 63.1152 21.8674 63.2022 22.0546 63.2528C22.2417 63.3034 22.4369 63.3166 22.6291 63.2918C22.8214 63.2669 23.0068 63.2045 23.1749 63.108C23.343 63.0114 23.4905 62.8828 23.6088 62.7292C23.7272 62.5757 23.8141 62.4004 23.8647 62.2133C23.9154 62.0262 23.9286 61.831 23.9038 61.6387C23.8789 61.4465 23.8164 61.2611 23.7199 61.093C19.4399 53.623 18.5999 46.923 21.3699 42.093C25.1299 35.583 35.2599 33.093 48.5399 35.553C48.9245 35.6232 49.3212 35.5379 49.6428 35.3156C49.9645 35.0934 50.1846 34.7525 50.2549 34.368C50.3252 33.9834 50.2398 33.5867 50.0176 33.265C49.7954 32.9434 49.4545 32.7232 49.0699 32.653V32.663ZM28.6299 72.613C35.0373 79.4797 42.4562 85.3272 50.6299 89.953C71.4699 101.953 93.6299 105.203 104.63 97.743C104.952 97.5228 105.174 97.1837 105.246 96.8002C105.318 96.4167 105.235 96.0202 105.015 95.698C104.795 95.3757 104.456 95.1541 104.072 95.0819C103.689 95.0097 103.292 95.0928 102.97 95.313C93.1099 102.003 71.9999 98.923 52.0699 87.393C44.1718 82.9165 37.0026 77.2615 30.8099 70.623C30.5447 70.3339 30.1755 70.162 29.7836 70.1451C29.3916 70.1282 29.009 70.2677 28.7199 70.533C28.4308 70.7982 28.2589 71.1674 28.2421 71.5593C28.2252 71.9513 28.3647 72.3339 28.6299 72.623V72.613Z" fill="#47848F"/>
<path d="M101.06 70.8112C110.47 59.7012 113.75 48.5213 109.23 40.7013C105.91 34.9412 98.8796 31.9012 89.5396 31.7813C89.1484 31.7812 88.7732 31.9367 88.4966 32.2133C88.22 32.4899 88.0646 32.8651 88.0646 33.2563C88.0646 33.6474 88.22 34.0226 88.4966 34.2992C88.7732 34.5758 89.1484 34.7312 89.5396 34.7312C97.9396 34.8412 103.99 37.4612 106.72 42.1812C110.47 48.6812 107.54 58.6512 98.8496 68.9212C98.7248 69.069 98.6304 69.2399 98.5717 69.4241C98.5129 69.6083 98.4911 69.8023 98.5073 69.995C98.5236 70.1877 98.5776 70.3753 98.6664 70.5471C98.7551 70.7189 98.8768 70.8715 99.0246 70.9963C99.1723 71.121 99.3432 71.2154 99.5274 71.2742C99.7116 71.3329 99.9056 71.3548 100.098 71.3385C100.291 71.3223 100.479 71.2682 100.65 71.1795C100.822 71.0907 100.975 70.969 101.1 70.8213L101.06 70.8112ZM76.8896 33.1513C67.6566 35.2466 58.8023 38.7545 50.6396 43.5512C29.1296 56.0012 15.0896 74.2913 16.9996 87.5713C17.0278 87.7682 17.0946 87.9577 17.196 88.1289C17.2975 88.3001 17.4317 88.4496 17.5909 88.5689C17.7502 88.6883 17.9314 88.7751 18.1242 88.8243C18.317 88.8736 18.5176 88.8845 18.7146 88.8563C18.9116 88.828 19.1011 88.7613 19.2722 88.6598C19.4434 88.5583 19.5929 88.4241 19.7123 88.2649C19.8316 88.1056 19.9184 87.9244 19.9677 87.7316C20.017 87.5389 20.0278 87.3382 19.9996 87.1413C18.2296 75.3513 31.5296 58.0013 52.1096 46.1112C60.0055 41.4543 68.5731 38.0441 77.5096 36.0012C77.6987 35.9605 77.8779 35.883 78.037 35.773C78.1962 35.663 78.3321 35.5228 78.437 35.3603C78.5419 35.1978 78.6138 35.0162 78.6486 34.8259C78.6833 34.6356 78.6803 34.4404 78.6396 34.2512C78.5989 34.0621 78.5213 33.8829 78.4113 33.7238C78.3014 33.5647 78.1611 33.4287 77.9986 33.3238C77.8361 33.2189 77.6545 33.147 77.4642 33.1122C77.2739 33.0775 77.0787 33.0805 76.8896 33.1212V33.1513Z" fill="#47848F"/>
<path d="M42 96.7798C47 110.51 55 119 64.05 119C70.65 119 76.75 114.5 81.51 106.58C81.7196 106.247 81.7883 105.845 81.7011 105.461C81.6139 105.078 81.3779 104.744 81.045 104.535C80.7122 104.325 80.3097 104.257 79.9262 104.344C79.5427 104.431 79.2096 104.667 79 105C74.72 112.12 69.47 116 64.06 116C56.54 116 49.37 108.46 44.82 95.7598C44.6874 95.3925 44.4143 95.0929 44.0608 94.9269C43.7073 94.761 43.3024 94.7422 42.935 94.8748C42.5677 95.0074 42.2681 95.2805 42.1021 95.634C41.9362 95.9875 41.9174 96.3925 42.05 96.7598L42 96.7798ZM87 94.0898C89.6602 85.2363 90.9782 76.0341 90.91 66.7898C90.91 42.3798 82.37 21.3498 70.2 15.9398C70.0228 15.861 69.8317 15.8179 69.6377 15.813C69.4438 15.808 69.2508 15.8413 69.0697 15.911C68.8886 15.9806 68.7231 16.0852 68.5824 16.2189C68.4418 16.3525 68.3288 16.5125 68.25 16.6898C68.0909 17.0479 68.0805 17.4545 68.2212 17.8202C68.3618 18.1859 68.642 18.4807 69 18.6398C79.85 23.4598 88 43.4198 88 66.7898C88.0665 75.7359 86.7924 84.6414 84.22 93.2098C84.1623 93.3943 84.1414 93.5884 84.1586 93.781C84.1758 93.9736 84.2308 94.1609 84.3204 94.3322C84.41 94.5035 84.5325 94.6555 84.6809 94.7795C84.8292 94.9035 85.0005 94.9971 85.185 95.0548C85.3695 95.1126 85.5636 95.1335 85.7562 95.1163C85.9488 95.099 86.1361 95.0441 86.3074 94.9544C86.4787 94.8648 86.6307 94.7424 86.7547 94.594C86.8787 94.4457 86.9723 94.2743 87.03 94.0898H87ZM114.71 92.6498C114.71 91.2555 114.297 89.8924 113.522 88.7331C112.747 87.5737 111.646 86.6701 110.358 86.1365C109.07 85.6029 107.652 85.4633 106.285 85.7353C104.917 86.0073 103.661 86.6788 102.675 87.6647C101.689 88.6507 101.018 89.9069 100.745 91.2744C100.473 92.642 100.613 94.0595 101.147 95.3477C101.68 96.636 102.584 97.737 103.743 98.5117C104.903 99.2864 106.266 99.6998 107.66 99.6998C108.586 99.6998 109.503 99.5175 110.358 99.1632C111.213 98.8089 111.99 98.2896 112.645 97.6349C113.3 96.9803 113.819 96.2031 114.173 95.3477C114.528 94.4924 114.71 93.5757 114.71 92.6498V92.6498ZM111.76 92.6498C111.76 93.4607 111.52 94.2534 111.069 94.9277C110.619 95.6019 109.978 96.1274 109.229 96.4377C108.48 96.7481 107.655 96.8293 106.86 96.6711C106.065 96.5129 105.334 96.1224 104.761 95.549C104.188 94.9756 103.797 94.245 103.639 93.4497C103.481 92.6544 103.562 91.83 103.872 91.0808C104.182 90.3317 104.708 89.6913 105.382 89.2408C106.056 88.7903 106.849 88.5498 107.66 88.5498C108.747 88.5498 109.79 88.9818 110.559 89.7507C111.328 90.5196 111.76 91.5624 111.76 92.6498V92.6498ZM20.34 99.6998C21.7344 99.6998 23.0974 99.2864 24.2568 98.5117C25.4162 97.737 26.3198 96.636 26.8534 95.3477C27.387 94.0595 27.5266 92.642 27.2546 91.2744C26.9825 89.9069 26.3111 88.6507 25.3251 87.6647C24.3392 86.6788 23.083 86.0073 21.7154 85.7353C20.3479 85.4633 18.9303 85.6029 17.6421 86.1365C16.3539 86.6701 15.2528 87.5737 14.4782 88.7331C13.7035 89.8924 13.29 91.2555 13.29 92.6498C13.29 94.5196 14.0328 96.3128 15.3549 97.6349C16.6771 98.9571 18.4703 99.6998 20.34 99.6998V99.6998ZM20.34 96.7498C19.5291 96.7498 18.7364 96.5094 18.0622 96.0589C17.388 95.6083 16.8625 94.968 16.5521 94.2188C16.2418 93.4697 16.1606 92.6453 16.3188 91.85C16.477 91.0546 16.8675 90.3241 17.4409 89.7507C18.0143 89.1773 18.7448 88.7868 19.5402 88.6286C20.3355 88.4704 21.1599 88.5516 21.909 88.8619C22.6582 89.1722 23.2986 89.6978 23.7491 90.372C24.1996 91.0462 24.44 91.8389 24.44 92.6498C24.44 93.7372 24.0081 94.7801 23.2392 95.549C22.4703 96.3179 21.4274 96.7498 20.34 96.7498V96.7498Z" fill="#47848F"/>
<path d="M64.05 23.1313C65.4444 23.1313 66.8074 22.7178 67.9668 21.9431C69.1261 21.1684 70.0298 20.0674 70.5634 18.7792C71.097 17.491 71.2366 16.0734 70.9645 14.7059C70.6925 13.3383 70.0211 12.0821 69.0351 11.0962C68.0491 10.1102 66.793 9.43874 65.4254 9.16672C64.0578 8.89469 62.6403 9.0343 61.3521 9.5679C60.0639 10.1015 58.9628 11.0051 58.1881 12.1645C57.4135 13.3238 57 14.6869 57 16.0813C57 17.951 57.7428 19.7442 59.0649 21.0664C60.387 22.3885 62.1802 23.1313 64.05 23.1313V23.1313ZM64.05 20.1813C63.2391 20.1813 62.4464 19.9408 61.7722 19.4903C61.0979 19.0398 60.5724 18.3994 60.2621 17.6503C59.9518 16.9011 59.8706 16.0767 60.0288 15.2814C60.187 14.4861 60.5775 13.7555 61.1509 13.1821C61.7243 12.6087 62.4548 12.2182 63.2501 12.06C64.0455 11.9018 64.8698 11.983 65.619 12.2933C66.3682 12.6037 67.0085 13.1292 67.459 13.8034C67.9095 14.4777 68.15 15.2704 68.15 16.0813C68.15 17.1686 67.718 18.2115 66.9491 18.9804C66.1802 19.7493 65.1374 20.1813 64.05 20.1813V20.1813ZM65.13 71.7713C64.1444 71.9918 63.1154 71.9147 62.1736 71.5498C61.2318 71.1849 60.4196 70.5485 59.8399 69.7214C59.2603 68.8943 58.9392 67.9137 58.9175 66.9039C58.8958 65.8941 59.1744 64.9006 59.718 64.0494C60.2617 63.1981 61.0458 62.5275 61.971 62.1224C62.8963 61.7174 63.921 61.5962 64.9152 61.7742C65.9094 61.9522 66.8283 62.4214 67.5556 63.1223C68.2828 63.8232 68.7855 64.7243 69 65.7113C69.2861 67.0277 69.0397 68.4039 68.3146 69.5393C67.5895 70.6747 66.4447 71.4771 65.13 71.7713V71.7713Z" fill="#47848F"/>
</svg>
