<svg width="800" height="300" viewBox="0 0 800 300" fill="none" xmlns="http://www.w3.org/2000/svg">
<path d="M239.25 69.582H357.09L351.35 103.472H275.24L269.51 138.872H338.12L332.39 172.872H263.78L252.31 242.242H210.59L239.25 69.582Z" fill="black"/>
<path d="M359 112.741H400.22L378.68 242.211H337.46L359 112.741ZM364 77.8509C365.7 67.0009 376.41 58.2109 388 58.2109C399.59 58.2109 407.85 67.0009 406.41 77.8509C404.97 88.7009 394.19 97.5709 382.56 97.5709C370.93 97.5709 362.42 88.6309 364 77.8509Z" fill="black"/>
<path d="M421.61 69.582H462.82L452.12 134.912H453C459.74 123.022 473.15 111.062 493.63 111.062C520.69 111.062 541.63 131.882 534 177.562C526.75 221.642 499.78 244.062 471.12 244.062C451.57 244.062 441.79 233.192 438.76 221.222H437.15L433.78 242.222H393L421.61 69.582ZM462.32 212.002C477.49 212.002 488.32 198.432 491.65 177.532C494.98 156.632 488.95 143.302 473.65 143.302C458.56 143.302 447.52 156.372 444.15 177.532C440.74 198.462 447.23 212.002 462.32 212.002Z" fill="black"/>
<path d="M538.79 178.002C545.44 137.882 575.11 111.082 614.14 111.082C650.89 111.082 672.81 134.592 665.73 177.162L664.12 187.442H577.9L577.64 188.962C575.03 205.402 582.78 214.962 598.88 214.962C609.59 214.962 618.88 210.412 623.58 201.732L661.17 202.822C651.99 228.282 627.29 244.712 593.17 244.712C552.52 244.652 531.79 219.372 538.79 178.002ZM629.65 163.502C631.76 150.272 623.83 140.832 610.35 140.832C597.03 140.832 585.23 150.692 582.28 163.502H629.65Z" fill="black"/>
<path d="M685.799 112.74H725.799L721.799 136.34H723.15C730.82 119.23 743.54 111 757.7 111C761.508 111.026 765.3 111.496 769 112.4L762.93 148.31C759.14 146.88 752.14 146.12 747 146.12C732.42 146.12 719.77 156.49 717.08 171.91L705.44 242.21H664.229L685.799 112.74Z" fill="black"/>
<path d="M213.77 115.41H79.26L68.5 130.68L211.28 130.6L213.77 115.41Z" fill="#00ACD7"/>
<path d="M209.02 147.059H34.9499L23.8799 162.269L206.53 162.139L209.02 147.059Z" fill="#00ACD7"/>
<path d="M204.27 178.699H129.9L119.9 193.969L201.78 193.909L204.27 178.699Z" fill="#00ACD7"/>
</svg>
