<svg width="128" height="128" viewBox="0 0 128 128" fill="none" xmlns="http://www.w3.org/2000/svg">
<path fill-rule="evenodd" clip-rule="evenodd" d="M64.0003 5.10156C30.6533 5.10156 3.6123 32.1366 3.6123 65.4896C3.6123 92.1716 20.9153 114.807 44.9093 122.793C47.9263 123.353 49.0343 121.483 49.0343 119.888C49.0343 118.448 48.9783 113.691 48.9523 108.645C32.1523 112.298 28.6073 101.52 28.6073 101.52C25.8603 94.5396 21.9023 92.6836 21.9023 92.6836C16.4223 88.9356 22.3153 89.0136 22.3153 89.0136C28.3783 89.4386 31.5723 95.2366 31.5723 95.2366C36.9583 104.467 45.6993 101.799 49.1453 100.257C49.6873 96.3536 51.2523 93.6886 52.9793 92.1806C39.5663 90.6556 25.4653 85.4766 25.4653 62.3376C25.4653 55.7446 27.8253 50.3576 31.6883 46.1276C31.0603 44.6076 28.9933 38.4656 32.2723 30.1476C32.2723 30.1476 37.3423 28.5246 48.8823 36.3376C53.7003 34.9986 58.8673 34.3256 64.0003 34.3026C69.1303 34.3256 74.3003 34.9966 79.1273 36.3356C90.6533 28.5226 95.7173 30.1456 95.7173 30.1456C99.0043 38.4626 96.9373 44.6056 96.3103 46.1256C100.182 50.3556 102.525 55.7426 102.525 62.3356C102.525 85.5296 88.3983 90.6356 74.9513 92.1316C77.1183 94.0056 79.0483 97.6816 79.0483 103.315C79.0483 111.395 78.9783 117.898 78.9783 119.887C78.9783 121.494 80.0663 123.377 83.1263 122.784C107.106 114.79 124.389 92.1616 124.389 65.4896C124.388 32.1386 97.3503 5.10256 64.0003 5.10256V5.10156Z" fill="#181616"/>
<path d="M26.4846 91.8035C26.3516 92.1035 25.8796 92.1935 25.4496 91.9885C25.0096 91.7925 24.7646 91.3835 24.9066 91.0825C25.0366 90.7725 25.5096 90.6875 25.9466 90.8945C26.3866 91.0915 26.6366 91.5045 26.4836 91.8045L26.4846 91.8035ZM28.9306 94.5325C28.6436 94.7995 28.0806 94.6755 27.6986 94.2525C27.3026 93.8325 27.2286 93.2695 27.5216 92.9985C27.8196 92.7325 28.3656 92.8585 28.7616 93.2785C29.1556 93.7045 29.2336 94.2625 28.9316 94.5335L28.9306 94.5325ZM31.3126 98.0095C30.9426 98.2675 30.3366 98.0265 29.9626 97.4895C29.5926 96.9515 29.5926 96.3065 29.9726 96.0495C30.3456 95.7915 30.9426 96.0245 31.3226 96.5565C31.6906 97.1015 31.6906 97.7465 31.3126 98.0085V98.0095ZM34.5736 101.37C34.2436 101.735 33.5376 101.637 33.0216 101.14C32.4946 100.653 32.3476 99.9605 32.6786 99.5965C33.0146 99.2305 33.7236 99.3325 34.2426 99.8265C34.7696 100.312 34.9286 101.006 34.5756 101.369L34.5736 101.37ZM39.0736 103.321C38.9266 103.794 38.2486 104.009 37.5636 103.807C36.8806 103.6 36.4336 103.047 36.5736 102.569C36.7136 102.092 37.3966 101.869 38.0856 102.084C38.7686 102.29 39.2156 102.84 39.0736 103.321ZM44.0166 103.682C44.0336 104.18 43.4536 104.592 42.7366 104.602C42.0136 104.619 41.4286 104.215 41.4216 103.725C41.4216 103.222 41.9896 102.815 42.7116 102.801C43.4286 102.788 44.0176 103.188 44.0176 103.681L44.0166 103.682ZM48.6146 102.9C48.7006 103.385 48.2016 103.884 47.4886 104.017C46.7886 104.147 46.1386 103.845 46.0486 103.364C45.9626 102.866 46.4706 102.367 47.1706 102.238C47.8846 102.115 48.5246 102.408 48.6146 102.901V102.9Z" fill="#181616"/>
</svg>
