<svg width="128" height="128" viewBox="0 0 128 128" fill="none" xmlns="http://www.w3.org/2000/svg">
<path fill-rule="evenodd" clip-rule="evenodd" d="M21.0996 68.7009C21.2996 72.2009 24.7996 70.6009 26.3996 69.5009C27.8996 68.4009 28.3996 69.3009 28.4996 67.2009C28.5996 65.8009 28.6996 64.5009 28.6996 63.1009C26.3996 62.9009 23.8996 63.4009 21.9996 64.8009C21.0996 65.5009 19.1996 67.8009 21.0996 68.7009" fill="#F6D2A2"/>
<path d="M22.9996 71.2008C22.2996 71.2008 20.9996 70.9008 20.7996 68.9008C20.1996 68.5008 19.9996 68.0008 19.9996 67.7008C19.8996 66.5008 21.1996 65.1008 21.8996 64.6008C23.4996 63.4008 25.5996 62.8008 27.7996 62.8008H29.0996V63.1008C29.1996 64.2008 29.0996 65.3008 28.9996 66.3008C28.9996 66.6008 28.9996 66.9008 28.8996 67.2008C28.7996 68.7008 28.4996 68.9008 27.7996 69.2008C27.4996 69.3008 27.1996 69.4008 26.6996 69.8008C26.1996 70.1008 24.4996 71.2008 22.9996 71.2008V71.2008ZM27.7996 63.4008C25.6996 63.4008 23.7996 64.0008 22.2996 65.1008C21.5996 65.6008 20.5996 66.8008 20.6996 67.6008C20.6996 67.9008 20.8996 68.2008 21.2996 68.4008L21.4996 68.5008V68.7008C21.5996 70.3008 22.3996 70.5008 22.9996 70.5008C23.9996 70.5008 25.3996 69.8008 26.2996 69.2008C26.8996 68.8008 27.2996 68.7008 27.5996 68.6008C28.0996 68.4008 28.1996 68.4008 28.2996 67.2008C28.2996 66.9008 28.2996 66.6008 28.3996 66.3008C28.4996 65.4008 28.4996 64.4008 28.4996 63.5008C28.1996 63.4008 27.9996 63.4008 27.7996 63.4008V63.4008Z" fill="black"/>
<path fill-rule="evenodd" clip-rule="evenodd" d="M21.0996 68.6984C21.5996 68.4984 22.1996 68.3984 22.4996 67.8984Z" fill="#C6B198"/>
<path d="M21.1 69C21 69 20.8 68.9 20.8 68.8C20.7 68.6 20.8 68.4 21 68.4C21.1 68.4 21.2 68.3 21.2 68.3C21.6 68.1 22 68 22.2 67.7C22.3 67.6 22.5 67.5 22.7 67.6C22.8 67.7 22.9 67.9 22.8 68.1C22.4 68.6 21.9 68.8 21.5 68.9L21.3 69H21.1Z" fill="black"/>
<path fill-rule="evenodd" clip-rule="evenodd" d="M29.2998 26.3992C15.6998 22.5992 25.7998 5.29918 36.6998 12.3992L29.2998 26.3992V26.3992Z" fill="#6AD7E5"/>
<path d="M29.5002 26.7984L29.2002 26.6984C22.2002 24.6984 22.3002 19.6984 22.5002 18.1984C23.0002 14.3984 26.6002 10.3984 31.4002 10.3984C33.3002 10.3984 35.1002 10.9984 36.9002 12.1984L37.2002 12.3984L29.5002 26.7984V26.7984ZM31.4002 11.0984C26.9002 11.0984 23.6002 14.7984 23.1002 18.2984C22.6002 21.8984 24.8002 24.6984 29.1002 25.9984L36.2002 12.4984C34.7002 11.5984 33.1002 11.0984 31.4002 11.0984V11.0984Z" fill="black"/>
<path fill-rule="evenodd" clip-rule="evenodd" d="M89.5996 11.1009C100.3 3.60095 110.1 20.6009 97.5996 24.9009L89.5996 11.1009V11.1009Z" fill="#6AD7E5"/>
<path d="M97.5002 25.3008L89.2002 11.0008L89.5002 10.8008C91.4002 9.50078 93.3002 8.80078 95.2002 8.80078C99.8002 8.80078 103.1 12.6008 103.8 16.3008C104.1 17.8008 104.4 22.9008 97.8002 25.1008L97.5002 25.3008ZM90.1002 11.3008L97.8002 24.6008C101.7 23.2008 103.7 20.2008 103.1 16.6008C102.5 13.2008 99.4002 9.70078 95.2002 9.70078C93.5002 9.60078 91.8002 10.1008 90.1002 11.3008Z" fill="black"/>
<path fill-rule="evenodd" clip-rule="evenodd" d="M92 112.301C94.7 114.001 99.7 119.101 95.6 121.601C91.7 125.201 89.5 117.601 86 116.601C87.5 114.601 89.4 112.701 92 112.301Z" fill="#F6D2A2"/>
<path d="M93.5004 122.9C91.9004 122.9 90.5004 121.3 89.3004 119.8C88.2004 118.6 87.1004 117.3 85.9004 116.9L85.4004 116.8L85.7004 116.4C86.9004 114.7 88.9004 112.5 91.9004 112H92.0004L92.1004 112.1C93.8004 113.2 97.5004 116.3 97.4004 119.2C97.4004 120.3 96.8004 121.2 95.7004 121.9C95.0004 122.6 94.3004 122.9 93.5004 122.9V122.9ZM86.5004 116.4C87.7004 116.9 88.7004 118.2 89.7004 119.3C90.9004 120.8 92.1004 122.1 93.4004 122.1C94.0004 122.1 94.6004 121.8 95.2004 121.2H95.3004C96.2004 120.6 96.7004 119.9 96.7004 119C96.7004 116.7 93.8004 113.8 91.8004 112.5C90.0004 113 88.2004 114.2 86.5004 116.4ZM95.6004 121.9C95.5004 121.9 95.4004 121.8 95.3004 121.7C95.1004 121.3 94.9004 120.8 94.8004 120.4C94.5004 119.6 94.2004 118.8 93.6004 118.2C93.5004 118.1 93.5004 117.9 93.6004 117.7C93.7004 117.6 93.9004 117.6 94.1004 117.7C94.8004 118.4 95.2004 119.3 95.5004 120.2L96.0004 121.4C96.1004 121.6 96.0004 121.8 95.9004 121.9H95.6004V121.9Z" fill="black"/>
<path fill-rule="evenodd" clip-rule="evenodd" d="M43.1997 118.099C39.9997 118.599 38.1997 121.499 35.4997 122.999C32.9997 124.499 31.9997 122.499 31.7997 122.099C31.3997 121.899 31.3997 122.299 30.7997 121.699C28.4997 117.999 33.1997 115.299 35.6997 113.499C39.1997 112.699 41.3997 115.699 43.1997 118.099" fill="#F6D2A2"/>
<path d="M33.8002 123.8C32.5002 123.8 31.8002 122.7 31.6002 122.3H31.5002C31.2002 122.3 31.0002 122.2 30.6002 121.8V121.7C28.4002 118.2 32.2002 115.5 34.7002 113.7L35.6002 113.1H35.8002C36.2002 113 36.5002 113 36.9002 113C39.9002 113 41.8002 115.6 43.4002 117.7L43.9002 118.4L43.3002 118.5C41.4002 118.8 40.0002 120 38.6002 121.2C37.7002 122 36.8002 122.7 35.8002 123.3C35.0002 123.6 34.4002 123.8 33.8002 123.8V123.8ZM31.6002 121.7C31.7002 121.7 31.8002 121.7 32.0002 121.8H32.1002L32.2002 121.9C32.4002 122.2 32.9002 123.1 33.9002 123.1C34.4002 123.1 34.9002 122.9 35.4002 122.6C36.4002 122.1 37.3002 121.3 38.1002 120.6C39.4002 119.5 40.8002 118.3 42.6002 117.8C41.1002 115.8 39.3002 113.6 36.8002 113.6C36.5002 113.6 36.2002 113.6 35.9002 113.7L35.1002 114.3C32.5002 116.1 29.3002 118.4 31.2002 121.4C31.3002 121.6 31.4002 121.7 31.6002 121.7V121.7ZM31.8002 122.4C31.6002 122.4 31.4002 122.2 31.5002 122C31.6002 121 32.1002 120.3 32.6002 119.5C32.9002 119.1 33.1002 118.7 33.3002 118.3C33.4002 118.1 33.6002 118.1 33.7002 118.1C33.9002 118.2 33.9002 118.4 33.9002 118.5C33.7002 119 33.4002 119.4 33.1002 119.8C32.6002 120.5 32.2002 121.1 32.1002 121.9C32.1002 122.3 32.0002 122.4 31.8002 122.4V122.4Z" fill="black"/>
<path fill-rule="evenodd" clip-rule="evenodd" d="M29.8999 21.699C28.0999 20.799 26.7999 19.499 27.8999 17.399C28.8999 15.499 30.7999 15.699 32.5999 16.599L29.8999 21.699V21.699ZM94.7999 19.899C96.5999 18.999 97.8999 17.699 96.7999 15.599C95.7999 13.699 93.8999 13.899 92.0999 14.799L94.7999 19.899Z" fill="black"/>
<path fill-rule="evenodd" clip-rule="evenodd" d="M107.1 68.2009C106.9 71.7009 103.4 70.1009 101.8 69.0009C100.3 67.9009 99.8 68.8009 99.7 66.7009C99.6 65.3009 99.5 64.0009 99.5 62.6009C101.8 62.4009 104.3 62.9009 106.2 64.3009C107.2 65.1009 109 67.3009 107.1 68.2009" fill="#F6D2A2"/>
<path d="M105.3 70.7008C103.8 70.7008 102.1 69.6008 101.6 69.3008C101.1 69.0008 100.8 68.8008 100.5 68.7008C99.6996 68.4008 99.4996 68.2008 99.3996 66.7008C99.3996 66.4008 99.3996 66.1008 99.2996 65.8008C99.1996 64.8008 99.0996 63.7008 99.1996 62.6008V62.3008H100.5C102.7 62.3008 104.8 62.9008 106.4 64.1008C107.1 64.6008 108.4 66.0008 108.3 67.2008C108.3 67.6008 108.1 68.1008 107.5 68.4008C107.3 70.4008 106 70.7008 105.3 70.7008V70.7008ZM99.7996 63.0008C99.7996 63.9008 99.7996 64.9008 99.8996 65.8008C99.8996 66.1008 99.8996 66.4008 99.9996 66.7008C100.1 67.9008 100.2 67.9008 100.7 68.1008C101 68.2008 101.4 68.4008 102 68.7008C102.9 69.3008 104.3 70.0008 105.3 70.0008C105.9 70.0008 106.7 69.8008 106.8 68.2008V68.0008L107 67.9008C107.4 67.7008 107.6 67.5008 107.6 67.1008C107.7 66.3008 106.7 65.1008 106 64.6008C104.5 63.5008 102.5 62.9008 100.5 62.9008C100.3 63.0008 100.1 63.0008 99.7996 63.0008V63.0008Z" fill="black"/>
<path fill-rule="evenodd" clip-rule="evenodd" d="M107.1 68.1984C106.6 67.9984 106 67.8984 105.7 67.3984Z" fill="#C6B198"/>
<path d="M107.1 68.5985H107L106.8 68.4985C106.3 68.2985 105.8 68.1985 105.5 67.6985C105.4 67.5985 105.4 67.2985 105.6 67.1985C105.7 67.0985 106 67.0985 106.1 67.2985C106.3 67.5985 106.7 67.6985 107.1 67.8985C107.2 67.8985 107.3 67.9985 107.3 67.9985C107.5 68.0985 107.6 68.2985 107.5 68.3985C107.4 68.4985 107.2 68.5985 107.1 68.5985Z" fill="black"/>
<path fill-rule="evenodd" clip-rule="evenodd" d="M62.7999 4C76.3999 4 89.0999 5.9 95.7999 19C101.8 33.6 99.5999 49.4 100.6 64.9C101.4 78.2 103.1 93.5 96.9999 105.8C90.4999 118.7 74.2999 122 60.9999 121.5C50.4999 121.1 37.8999 117.7 31.8999 108.1C24.9999 96.9 28.1999 80.2 28.6999 67.7C29.2999 52.9 24.6999 38 29.5999 23.6C34.4999 8.5 48.0999 5.1 62.7999 4Z" fill="#6AD7E5"/>
<path d="M63.3 121.899H60.8C56.7 121.799 50.5 121.099 44.4 118.599C38.5 116.199 34.2 112.799 31.4 108.299C25.8 99.1989 26.8 86.6989 27.7 75.5989C27.9 72.7989 28.1 70.1989 28.2 67.6989C28.4 62.4989 28 57.0989 27.5 51.9989C26.7 42.5989 25.9 32.8989 29 23.4989C31.4 16.4989 35.7 11.4989 42.2 8.29893C47.3 5.79893 53.6 4.39893 62.6 3.69893C76 3.59893 89.3 5.49893 96 18.7989C100.4 29.4989 100.4 40.9989 100.5 52.0989C100.5 56.2989 100.5 60.5989 100.8 64.7989C100.9 66.0989 101 67.3989 101 68.6989C101.8 80.8989 102.7 94.6989 97.1 105.899C94.3 111.599 89.4 115.799 82.7 118.499C77.3 120.699 70.5 121.899 63.3 121.899V121.899ZM62.8 4.29893C48.7 5.39893 34.9 8.49893 29.8 23.6989C26.7 32.9989 27.5 42.5989 28.3 51.8989C28.7 57.0989 29.2 62.3989 29 67.6989C28.9 70.1989 28.7 72.7989 28.5 75.5989C27.6 86.5989 26.6 98.9989 32.1 107.899C34.4 111.599 41.8001 120.399 60.9001 121.099H63.4001C85.5001 121.099 93.7 111.299 96.7 105.499C102.2 94.4989 101.3 80.6989 100.6 68.5989C100.5 67.2989 100.4 65.9989 100.4 64.6989C100.2 60.4989 100.1 56.1989 100.1 51.9989C100 40.9989 100 29.4989 95.7 18.8989C92.7 12.9989 88.2 8.99893 82 6.69893C75.6 4.59893 68.4 4.29893 62.8 4.29893V4.29893Z" fill="black"/>
<path fill-rule="evenodd" clip-rule="evenodd" d="M65.2 22.1995C67.6 36.3995 90.8 32.5995 87.5 18.2995C84.5 5.4995 64.4 9.0995 65.2 22.1995Z" fill="white"/>
<path d="M76.2004 31.5016C71.7004 31.5016 66.0004 29.1016 64.8004 22.3016C64.6004 19.1016 65.6004 16.2016 67.7004 14.0016C70.0004 11.5016 73.5004 10.1016 77.1004 10.1016C81.3004 10.1016 86.3004 12.3016 87.7004 18.4016C88.5004 21.8016 87.9004 24.8016 86.0004 27.2016C83.9004 29.8016 80.2004 31.5016 76.2004 31.5016ZM65.5004 22.2016C66.0004 25.0016 67.3004 27.2016 69.4004 28.8016C71.2004 30.2016 73.7004 30.9016 76.2004 30.9016C79.9004 30.9016 83.5004 29.3016 85.5004 26.8016C87.3004 24.6016 87.8004 21.7016 87.1004 18.5016C85.8004 12.8016 81.1004 10.8016 77.1004 10.8016C73.7004 10.8016 70.4004 12.2016 68.2004 14.5016C66.3004 16.5016 65.3004 19.2016 65.5004 22.2016V22.2016Z" fill="black"/>
<path fill-rule="evenodd" clip-rule="evenodd" d="M37.4996 24.5009C40.6996 36.8009 60.3996 33.7009 59.6996 21.3009C58.7996 6.50092 34.3996 9.30092 37.4996 24.5009Z" fill="white"/>
<path d="M48 32.6992C43.7 32.6992 38.7 30.5992 37.1 24.5992C36.4 21.0992 37.1 17.8992 39.1 15.4992C41.3 12.7992 44.9 11.1992 48.8 11.1992C54 11.1992 59.5 14.2992 59.9 21.2992C60.1 24.1992 59.2 26.7992 57.2 28.8992C55.1 31.1992 51.6 32.6992 48 32.6992ZM48.8 11.8992C45.1 11.8992 41.7 13.3992 39.6 15.8992C37.7 18.1992 37.1 21.0992 37.8 24.3992C39.2 29.9992 44 31.9992 48 31.9992C51.4 31.9992 54.7 30.6992 56.8 28.3992C58.6 26.4992 59.5 23.9992 59.3 21.2992C59.1 16.9992 56.2 11.8992 48.8 11.8992V11.8992Z" fill="black"/>
<path fill-rule="evenodd" clip-rule="evenodd" d="M67.9997 39.1984C67.9997 40.9984 68.3997 43.0984 68.0997 45.0984C67.5997 45.9984 66.6997 46.0984 65.8997 46.3984C64.7997 46.1984 63.8997 45.4984 63.3997 44.4984C63.0997 42.2984 63.4997 40.0984 63.5997 37.8984L67.9997 39.1984V39.1984Z" fill="white"/>
<path d="M65.8998 46.8016C64.5998 46.6016 63.5998 45.8016 63.0998 44.7016C62.8998 43.1016 62.9998 41.6016 63.0998 40.1016C63.1998 39.4016 63.1998 38.7016 63.1998 38.0016V37.6016L68.2998 39.2016V39.4016C68.2998 40.0016 68.3998 40.6016 68.3998 41.3016C68.4998 42.6016 68.5998 44.0016 68.3998 45.3016V45.4016C67.9998 46.2016 67.2998 46.4016 66.5998 46.7016C66.3998 46.6016 66.1998 46.7016 65.8998 46.8016ZM63.6998 44.4016C64.0998 45.3016 64.8998 45.9016 65.7998 46.1016C65.9998 46.0016 66.1998 46.0016 66.2998 45.9016C66.8998 45.7016 67.3998 45.5016 67.6998 45.0016C67.8998 43.8016 67.7998 42.5016 67.6998 41.2016C67.6998 40.6016 67.5998 40.0016 67.5998 39.5016L63.7998 38.3016C63.7998 38.9016 63.6998 39.5016 63.6998 40.0016C63.5998 41.6016 63.4998 43.0016 63.6998 44.4016V44.4016Z" fill="black"/>
<path fill-rule="evenodd" clip-rule="evenodd" d="M46.3002 22.4984C46.3002 24.4984 44.8002 26.0984 43.0002 26.0984C41.2002 26.0984 39.7002 24.4984 39.7002 22.4984C39.7002 20.4984 41.2002 18.8984 43.0002 18.8984C44.8002 18.8984 46.3002 20.4984 46.3002 22.4984Z" fill="black"/>
<path fill-rule="evenodd" clip-rule="evenodd" d="M45.1996 23.2984C45.1996 23.7984 44.7996 24.1984 44.3996 24.1984C43.9996 24.1984 43.5996 23.7984 43.5996 23.2984C43.5996 22.7984 43.9996 22.3984 44.3996 22.3984C44.8996 22.3984 45.1996 22.7984 45.1996 23.2984Z" fill="white"/>
<path fill-rule="evenodd" clip-rule="evenodd" d="M74.1996 21.6C74.1996 23.6 72.6996 25.2 70.8996 25.2C69.0996 25.2 67.5996 23.6 67.5996 21.6C67.5996 19.6 69.0996 18 70.8996 18C72.6996 18 74.1996 19.6 74.1996 21.6Z" fill="black"/>
<path fill-rule="evenodd" clip-rule="evenodd" d="M73.2002 22.4C73.2002 22.9 72.9002 23.3 72.4002 23.3C72.0002 23.3 71.6002 22.9 71.6002 22.4C71.6002 21.9 71.9002 21.5 72.4002 21.5C72.8002 21.5 73.2002 21.9 73.2002 22.4ZM58.4002 39C56.9002 42.5 59.2002 49.6 63.2002 44.4C62.9002 42.2 63.3002 40 63.4002 37.8L58.4002 39Z" fill="white"/>
<path d="M60.4999 46.6008C59.7999 46.6008 59.0999 46.2008 58.5999 45.4008C57.4999 43.8008 57.2999 40.8008 58.0999 38.9008L58.1999 38.7008L63.6999 37.3008V37.7008L63.5999 39.9008C63.4999 41.4008 63.3999 42.8008 63.5999 44.3008V44.4008L63.4999 44.5008C62.4999 45.9008 61.4999 46.6008 60.4999 46.6008ZM58.6999 39.3008C58.0999 41.0008 58.2999 43.7008 59.1999 45.0008C59.5999 45.6008 59.9999 45.9008 60.4999 45.9008C61.1999 45.9008 61.9999 45.3008 62.7999 44.3008C62.5999 42.8008 62.6999 41.3008 62.8999 39.9008L62.9999 38.2008L58.6999 39.3008Z" fill="black"/>
<path fill-rule="evenodd" clip-rule="evenodd" d="M58.9004 32.2008C56.2004 32.4008 54.0004 35.7008 55.4004 38.2008C57.3004 41.6008 61.4004 37.9008 64.0004 38.2008C67.0004 38.3008 69.4004 41.4008 71.8004 38.8008C74.5004 35.9008 70.6004 33.1008 67.7004 31.8008L58.9004 32.2008V32.2008Z" fill="#F6D2A2"/>
<path d="M69.6997 40.2C68.7997 40.2 67.8997 39.8 66.9997 39.4C66.0997 39 65.0997 38.6 63.9997 38.6H63.6997C62.8997 38.6 61.9997 38.9 60.9997 39.3C59.8997 39.7 58.7997 40 57.7997 40C56.5997 40 55.6997 39.5 55.0997 38.4C54.3997 37.2 54.4997 35.8 55.1997 34.5C55.9997 33 57.3997 32.1 58.8997 31.9L67.7997 31.5H67.8997C70.0997 32.4 72.5997 34.1 73.0997 36.1C73.2997 37.1 72.9997 38.1 72.1997 39C71.3997 39.9 70.5997 40.2 69.6997 40.2V40.2ZM64.0997 38C65.1997 38 66.2997 38.5 67.2997 38.9C68.1997 39.3 68.9997 39.6 69.7997 39.6C70.4997 39.6 71.0997 39.3 71.6997 38.7C72.3997 38 72.5997 37.2 72.4997 36.4C72.0997 34.7 69.6997 33.1 67.7997 32.3L59.0997 32.7C57.7997 32.8 56.5997 33.7 55.8997 34.9C55.2997 36 55.2997 37.2 55.7997 38.2C56.2997 39.1 56.8997 39.5 57.8997 39.5C58.7997 39.5 59.7997 39.1 60.7997 38.8C61.8997 38.4 62.7997 38.1 63.7997 38.1C63.7997 37.9 63.8997 37.9 64.0997 38V38Z" fill="#231F20"/>
<path fill-rule="evenodd" clip-rule="evenodd" d="M58.6 32.1013C58.4 27.4013 67.4 26.8013 68.4 30.7013C69.5 34.7013 59 35.6013 58.6 32.1013" fill="black"/>
</svg>
