<svg width="128" height="128" viewBox="0 0 128 128" fill="none" xmlns="http://www.w3.org/2000/svg">
<path d="M19.0372 113.875L9.03223 1.66016H118.968L108.952 113.858L63.9332 126.338L19.0372 113.875Z" fill="#E44D26"/>
<path d="M64 116.8L100.378 106.714L108.937 10.8359H64V116.8Z" fill="#F16529"/>
<path d="M64.0003 52.4537H45.7883L44.5303 38.3597H64.0003V24.5977H29.4893L29.8193 28.2897L33.2013 66.2167H64.0003V52.4537ZM64.0003 88.1967L63.9393 88.2137L48.6123 84.0737L47.6333 73.0987H33.8163L35.7443 94.7077L63.9373 102.534L64.0003 102.517V88.1967Z" fill="#EBEBEB"/>
<path d="M63.9521 52.4537V66.2167H80.8992L79.3022 84.0657L63.9521 88.2087V102.528L92.1671 94.7077L92.3741 92.3827L95.6082 56.1497L95.9431 52.4537H92.2351H63.9521ZM63.9521 24.5977V38.3597H97.1961L97.4721 35.2677L98.1001 28.2897L98.4291 24.5977H63.9521Z" fill="white"/>
</svg>
