<svg width="128" height="128" viewBox="0 0 128 128" fill="none" xmlns="http://www.w3.org/2000/svg">
<path d="M47.6173 98.1181C47.6173 98.1181 42.8503 100.892 51.0143 101.828C60.9063 102.958 65.9613 102.796 76.8593 100.736C76.8593 100.736 79.7303 102.531 83.7323 104.087C59.2933 114.557 28.4243 103.48 47.6173 98.1181ZM44.6293 84.4531C44.6293 84.4531 39.2813 88.4121 47.4523 89.2581C58.0193 90.3491 66.3623 90.4381 80.8063 87.6581C80.8063 87.6581 82.7993 89.6831 85.9383 90.7891C56.3963 99.4291 23.4923 91.4691 44.6293 84.4531V84.4531Z" fill="#0074BD"/>
<path d="M69.8016 61.2729C75.8266 68.2079 68.2215 74.4429 68.2215 74.4429C68.2215 74.4429 83.5105 66.5519 76.4905 56.6659C69.9315 47.4509 64.9035 42.8739 92.1255 27.0859C92.1255 27.0869 49.3946 37.7559 69.8016 61.2729V61.2729Z" fill="#EA2D2E"/>
<path d="M102.123 108.231C102.123 108.231 105.652 111.141 98.2354 113.39C84.1334 117.662 39.5294 118.95 27.1414 113.561C22.6904 111.623 31.0404 108.936 33.6674 108.369C36.4064 107.776 37.9704 107.884 37.9704 107.884C33.0174 104.397 5.95741 114.734 24.2274 117.699C74.0484 125.775 115.044 114.062 102.123 108.231V108.231ZM49.9124 70.2959C49.9124 70.2959 27.2264 75.6849 41.8794 77.6439C48.0674 78.4719 60.3974 78.2819 71.8904 77.3179C81.2804 76.5289 90.7034 74.8439 90.7034 74.8439C90.7034 74.8439 87.3954 76.2629 84.9994 77.8969C61.9574 83.9579 17.4554 81.1349 30.2684 74.9389C41.1004 69.6999 49.9124 70.2959 49.9124 70.2959V70.2959ZM90.6094 93.0429C114.03 80.8759 103.2 69.1829 95.6414 70.7579C93.7934 71.1429 92.9644 71.4779 92.9644 71.4779C92.9644 71.4779 93.6524 70.3989 94.9644 69.9349C109.917 64.6799 121.415 85.4379 90.1414 93.6599C90.1414 93.6579 90.5004 93.3329 90.6094 93.0429V93.0429Z" fill="#0074BD"/>
<path d="M76.4912 1.58594C76.4912 1.58594 89.4592 14.5619 64.1882 34.5089C43.9222 50.5149 59.5672 59.6389 64.1812 70.0679C52.3502 59.3949 43.6722 49.9979 49.4932 41.2529C58.0412 28.4189 81.7222 22.1939 76.4912 1.58594Z" fill="#EA2D2E"/>
<path d="M52.2144 126.022C74.6904 127.459 109.214 125.222 110.031 114.586C110.031 114.586 108.46 118.618 91.4544 121.817C72.2684 125.429 48.6004 125.008 34.5674 122.691C34.5674 122.692 37.4424 125.072 52.2144 126.022V126.022Z" fill="#0074BD"/>
</svg>
