<svg width="128" height="128" viewBox="0 0 128 128" fill="none" xmlns="http://www.w3.org/2000/svg">
<path d="M1.4082 1.40625H126.592V126.591H1.4082V1.40625Z" fill="#F0DB4F"/>
<path d="M116.347 96.7369C115.43 91.0259 111.706 86.2288 100.675 81.7558C96.8426 79.9948 92.5706 78.7339 91.2976 75.8299C90.8456 74.1399 90.7856 73.1879 91.0716 72.1649C91.8926 68.8449 95.8556 67.8099 98.9966 68.7619C101.02 69.4399 102.935 70.9989 104.09 73.4859C109.492 69.9879 109.481 70.0109 113.253 67.6069C111.872 65.4659 111.135 64.4779 110.231 63.5619C106.982 59.9329 102.555 58.0639 95.4746 58.2069L91.7866 58.6839C88.2526 59.5769 84.8846 61.4319 82.9096 63.9189C76.9836 70.6429 78.6736 82.4108 85.8846 87.2538C92.9886 92.5858 103.425 93.7988 104.758 98.7848C106.055 104.889 100.272 106.865 94.5236 106.163C90.2876 105.282 87.9316 103.129 85.3846 99.2138C80.6966 101.927 80.6966 101.927 75.8766 104.699C77.0196 107.198 78.2206 108.329 80.1366 110.494C89.2046 119.692 111.897 119.24 115.967 105.318C116.132 104.84 117.228 101.652 116.347 96.7369V96.7369ZM69.4616 58.9439H57.7526L57.7046 89.2158C57.7046 95.6538 58.0376 101.556 56.9906 103.365C55.2776 106.923 50.8386 106.482 48.8156 105.792C46.7566 104.78 45.7096 103.341 44.4966 101.307C44.1636 100.723 43.9136 100.271 43.8296 100.236L34.3096 106.066C35.8926 109.315 38.2246 112.135 41.2116 113.967C45.6736 116.645 51.6706 117.466 57.9426 116.026C62.0246 114.837 65.5466 112.374 67.3906 108.625C70.0566 103.71 69.4846 97.7609 69.4606 91.1809C69.5206 80.4459 69.4616 69.7129 69.4616 58.9439V58.9439Z" fill="#323330"/>
</svg>
