<svg width="128" height="128" viewBox="0 0 128 128" fill="none" xmlns="http://www.w3.org/2000/svg">
<path d="M124.129 63.0203C124.129 55.3283 118.301 48.8553 110.477 47.0083L128 0.113281H41.1598L58.7228 47.1563C51.1448 49.1523 45.5588 55.5123 45.5588 63.0593C45.5588 68.6053 48.6168 73.5233 53.2618 76.5553C51.4298 78.9223 49.3088 81.1053 46.9058 83.1753C42.3828 87.0233 37.3668 89.9803 31.9488 91.9413C27.0588 88.9453 24.9408 83.6563 26.8548 78.9213C34.3118 76.8513 39.7348 70.5273 39.7348 63.0943C39.7348 53.9613 31.5428 46.5623 21.5148 46.5623C11.4488 46.5623 3.2618 53.9963 3.2618 63.1323C3.2618 67.6453 5.2968 71.7853 8.5588 74.7423C8.2728 75.2623 7.9888 75.7773 7.7028 76.3323C4.9728 81.4383 1.8748 87.2073 0.690801 93.6803C-1.6722 106.621 2.1988 117.016 11.5308 122.895C16.7888 126.188 22.5778 127.852 28.8128 127.852C39.5268 127.852 50.4098 122.969 60.9218 118.234C68.4218 114.871 76.1638 111.355 83.7848 109.656C86.5978 109.027 89.5308 108.656 92.6288 108.25C98.9018 107.437 105.383 106.586 111.211 103.516C118.016 99.9303 122.661 93.9373 124.008 87.0593C125.023 81.7693 124.008 76.4453 121.398 71.7853C123.181 69.2105 124.133 66.152 124.128 63.0203H124.129ZM116.184 63.0203C116.184 68.1603 111.578 72.3403 105.914 72.3403C100.25 72.3403 95.6438 68.1603 95.6438 63.0203C95.6438 61.3553 96.1328 59.7663 96.9878 58.3983C97.3128 57.8783 97.7228 57.3633 98.1278 56.9183C98.5571 56.4606 99.0357 56.0518 99.5548 55.6993L99.5978 55.6603C99.9218 55.4383 100.289 55.2153 100.656 54.9963C100.656 54.9963 100.696 54.9963 100.696 54.9573C100.859 54.8833 101.023 54.7733 101.188 54.6993C101.227 54.6993 101.266 54.6603 101.308 54.6603C101.473 54.5903 101.676 54.5163 101.878 54.4413C102.071 54.3739 102.261 54.2999 102.449 54.2193C102.489 54.2193 102.531 54.1793 102.57 54.1793C102.734 54.1453 102.898 54.0703 103.059 54.0353C103.102 54.0353 103.184 53.9963 103.223 53.9963C103.426 53.9613 103.59 53.9223 103.793 53.8863H103.836L104.446 53.7733C104.488 53.7733 104.566 53.7733 104.609 53.7383C104.773 53.7383 104.934 53.6993 105.098 53.6993H105.301C105.504 53.6993 105.711 53.6643 105.953 53.6643H106.484C106.644 53.6643 106.77 53.6643 106.93 53.6993H107.012C107.34 53.7393 107.664 53.7733 107.992 53.8483C112.637 54.7343 116.184 58.5083 116.184 63.0203V63.0203ZM52.5268 7.50828H116.629L101.918 46.8953C101.308 47.0083 100.695 47.1913 100.086 47.3753L84.6018 18.7153L69.0738 47.1903C68.4608 47.0073 67.8088 46.8943 67.1598 46.7843L52.5268 7.50828ZM81.6638 59.8003C80.8908 56.3233 78.9338 53.2183 76.1638 50.9253L84.6018 35.4683L93.1168 51.2573C90.5898 53.5503 88.7568 56.4723 88.0228 59.8003H81.6638ZM61.2498 53.9603C61.4528 53.9203 61.6168 53.8863 61.8198 53.8473H61.9408C62.1048 53.8123 62.2698 53.8123 62.4298 53.7723H62.5938C62.7578 53.7723 62.8788 53.7373 63.0428 53.7373H64.6328C64.7928 53.7373 64.9178 53.7723 65.0388 53.7723C65.1208 53.7723 65.1598 53.7723 65.2418 53.8123C65.4058 53.8473 65.5268 53.8473 65.6918 53.8863C65.7298 53.8863 65.7728 53.8863 65.8548 53.9213C66.0588 53.9603 66.2618 53.9953 66.4248 54.0343H66.4648C66.6288 54.0693 66.7928 54.1043 66.9528 54.1793C66.9958 54.1793 67.0348 54.2183 67.1168 54.2183C67.2378 54.2533 67.4018 54.2923 67.5228 54.3663C67.5658 54.3663 67.6048 54.4013 67.6478 54.4013C67.8078 54.4763 67.9728 54.5153 68.1368 54.5893H68.1758C68.3788 54.6593 68.5428 54.7333 68.7068 54.8473H68.7468C68.9098 54.9213 69.0738 55.0303 69.2378 55.1043C69.2778 55.1043 69.2778 55.1443 69.3158 55.1443C69.4798 55.2143 69.6018 55.3273 69.7658 55.4013L69.8088 55.4363C70.2968 55.7693 70.7458 56.1403 71.1908 56.5113L71.2338 56.5463C71.6408 56.9523 72.0468 57.3973 72.3748 57.8783C73.4338 59.3583 74.0468 61.0973 74.0468 62.9833C74.0468 68.1243 69.4408 72.3003 63.7768 72.3003C58.1128 72.3003 53.5068 68.1243 53.5068 62.9833C53.4648 58.6553 56.7658 54.9953 61.2498 53.9603V53.9603ZM21.1478 53.6983C26.8128 53.6983 31.4178 57.8783 31.4178 63.0183C31.4178 68.1593 26.8128 72.3383 21.1478 72.3383C15.4838 72.3383 10.8778 68.1593 10.8778 63.0183C10.8778 57.8783 15.4838 53.6983 21.1478 53.6983V53.6983ZM115.938 85.7653C115.043 90.4953 111.82 94.6403 107.094 97.1163C102.652 99.4483 97.1908 100.186 91.4448 100.925C88.3088 101.331 85.0078 101.776 81.8278 102.479C73.3518 104.366 65.2028 108.065 57.2968 111.612C47.1908 116.163 37.6518 120.452 28.8128 120.452C24.2068 120.452 20.0898 119.269 16.1798 116.792C7.2148 111.171 7.6598 100.632 8.7228 94.8623C9.6988 89.4603 12.4298 84.3943 15.0388 79.5503C15.1988 79.2533 15.3238 78.9953 15.4838 78.6983C16.3828 78.9953 17.3198 79.2183 18.2968 79.3663C16.7498 87.2063 21.1478 95.3043 29.7068 99.3003L31.2568 100.038L32.9258 99.4833C40.0588 97.1903 46.6598 93.4563 52.4878 88.4633C55.7888 85.6513 58.6018 82.6203 60.9648 79.3273C61.9018 79.4763 62.8398 79.5153 63.7768 79.5153C72.2538 79.5153 79.3828 74.2253 81.4218 67.1243H88.2658C90.3048 74.2613 97.4368 79.5143 105.914 79.5143C109.297 79.5143 112.434 78.6643 115.121 77.2223C116.184 79.9953 116.508 82.8783 115.938 85.7653V85.7653Z" fill="#99425B"/>
</svg>
