<svg width="128" height="128" viewBox="0 0 128 128" fill="none" xmlns="http://www.w3.org/2000/svg">
<path d="M29.2 62.9984H28C27.5 68.0984 26.8 74.2984 18 74.2984H14C11.7 74.2984 11.6 73.9984 11.6 72.2984V45.7984C11.6 44.0984 11.6 43.3984 16.3 43.3984H17.9V41.8984C16 41.9984 11.6 41.9984 9.5 41.9984C7.6 41.9984 3.7 41.9984 2 41.8984V43.3984H3.1C6.9 43.3984 7 43.8984 7 45.6984V71.7984C7 73.5984 6.9 74.0984 3.1 74.0984H2V75.5984H27.8L29.2 62.9984Z" fill="black"/>
<path d="M28.3004 41.8C28.1004 41.2 28.0004 41 27.4004 41C26.8004 41 26.6004 41.2 26.4004 41.8L18.4004 62.1C18.1004 62.9 17.5004 64.5 14.4004 64.5V65.7H22.1004V64.5C20.6004 64.5 19.6004 63.8 19.6004 62.8C19.6004 62.6 19.6004 62.5 19.7004 62.1L21.4004 57.8H31.3004L33.3004 62.9C33.4004 63.1 33.5004 63.3 33.5004 63.5C33.5004 64.5 31.6004 64.5 30.7004 64.5V65.7H40.5004V64.5H39.8004C37.5004 64.5 37.2004 64.2 36.9004 63.2L28.3004 41.8V41.8ZM26.4004 45.4L30.8004 56.7H21.9004L26.4004 45.4V45.4Z" fill="black"/>
<path d="M68.2 42.1992H37.9L37 53.2992H38.2C38.9 45.2992 39.6 43.5992 47.2 43.5992C48.1 43.5992 49.4 43.5992 49.9 43.6992C50.9 43.8992 50.9 44.3992 50.9 45.5992V71.6992C50.9 73.3992 50.9 74.0992 45.7 74.0992H43.7V75.5992C45.7 75.4992 50.8 75.4992 53.1 75.4992C55.4 75.4992 60.5 75.4992 62.6 75.5992V74.0992H60.6C55.4 74.0992 55.4 73.3992 55.4 71.6992V45.6992C55.4 44.6992 55.4 43.9992 56.3 43.7992C56.8 43.6992 58.2 43.6992 59.1 43.6992C66.6 43.6992 67.3 45.2992 68 53.3992H69.2L68.2 42.1992V42.1992Z" fill="black"/>
<path d="M94.9002 74.1992H93.7002C92.5002 81.7992 91.3002 85.4992 82.8002 85.4992H76.2002C73.9002 85.4992 73.8002 85.1992 73.8002 83.4992V70.1992H78.2002C83.0002 70.1992 83.6002 71.7992 83.6002 75.9992H84.8002V62.8992H83.6002C83.6002 67.0992 83.1002 68.6992 78.2002 68.6992H73.8002V56.6992C73.8002 55.0992 73.9002 54.6992 76.2002 54.6992H82.6002C90.2002 54.6992 91.5002 57.3992 92.3002 64.3992H93.5002L92.1002 53.1992H64.2002V54.6992H65.3002C69.1002 54.6992 69.2002 55.1992 69.2002 56.9992V82.9992C69.2002 84.7992 69.1002 85.2992 65.3002 85.2992H64.2002V86.9992H92.8002L94.9002 74.1992Z" fill="black"/>
<path d="M109.9 56.5984L116.7 46.5984C117.7 44.9984 119.4 43.3984 123.9 43.3984V41.8984H112V43.3984C114 43.3984 115.1 44.4984 115.1 45.6984C115.1 46.1984 115 46.2984 114.7 46.7984L109 55.1984L102.6 45.5984C102.5 45.4984 102.3 45.0984 102.3 44.8984C102.3 44.2984 103.4 43.4984 105.5 43.3984V41.8984C103.8 41.9984 100.2 41.9984 98.2996 41.9984C96.7996 41.9984 93.6996 41.9984 91.7996 41.8984V43.3984H92.6996C95.3996 43.3984 96.3996 43.6984 97.2996 45.0984L106.4 58.8984L98.2996 70.8984C97.5996 71.8984 96.0996 74.1984 91.0996 74.1984V75.6984H103V74.1984C100.7 74.1984 99.8996 72.7984 99.8996 71.8984C99.8996 71.4984 99.9996 71.2984 100.4 70.6984L107.4 60.2984L115.3 72.1984C115.4 72.3984 115.5 72.5984 115.5 72.6984C115.5 73.2984 114.4 74.0984 112.3 74.1984V75.6984C114 75.5984 117.7 75.5984 119.5 75.5984C121.6 75.5984 123.9 75.5984 126 75.6984V74.1984H125.1C122.5 74.1984 121.5 73.9984 120.4 72.3984L109.9 56.5984V56.5984Z" fill="black"/>
</svg>
