<svg width="128" height="128" viewBox="0 0 128 128" fill="none" xmlns="http://www.w3.org/2000/svg">
<path d="M93.8092 92.1134C94.5942 85.5804 94.3592 84.6214 99.2252 85.6804L100.46 85.7884C104.202 85.9584 109.097 85.1864 111.973 83.8504C118.164 80.9774 121.834 76.1824 115.731 77.4414C101.807 80.3144 100.85 75.5994 100.85 75.5994C115.553 53.7844 121.699 26.0914 116.393 19.3124C101.923 0.823441 76.8762 9.56644 76.4572 9.79244L76.3232 9.81744C73.5722 9.24644 70.4932 8.90544 67.0342 8.84944C60.7332 8.74544 55.9522 10.5014 52.3252 13.2514C52.3252 13.2514 7.64224 -5.15756 9.72124 36.4024C10.1632 45.2434 22.3932 103.3 36.9812 85.7644C42.3132 79.3524 47.4652 73.9304 47.4652 73.9304C50.0232 75.6294 53.0872 76.4974 56.2992 76.1854L56.5482 75.9734C56.4702 76.7694 56.5042 77.5484 56.6472 78.4704C52.8902 82.6694 53.9942 83.4064 46.4812 84.9524C38.8792 86.5184 43.3452 89.3074 46.2602 90.0364C49.7952 90.9204 57.9722 92.1724 63.4982 84.4384L63.2782 85.3204C64.7522 86.5004 64.6532 93.7974 64.8612 99.0104C65.0702 104.224 65.4192 109.089 66.4822 111.958C67.5452 114.826 68.7992 122.214 78.6732 120.098C86.9252 118.334 93.2342 115.789 93.8092 92.1134Z" fill="black"/>
<path d="M75.458 125.258C71.091 125.258 68.247 123.569 66.52 121.938C63.913 119.478 62.879 116.309 62.261 114.416L61.994 113.626C60.75 110.268 60.328 105.433 60.078 99.2068C60.04 98.2718 60.014 97.3088 59.985 96.2878C59.964 95.5408 59.938 94.6038 59.9 93.6238C58.3267 94.3739 56.6567 94.9017 54.938 95.1918C51.859 95.7178 48.549 95.5478 45.098 94.6848C42.663 94.0758 40.133 92.8138 38.691 90.8648C34.488 94.5458 30.479 94.0468 28.295 93.3178C24.442 92.0328 20.994 88.4218 17.753 82.2808C15.444 77.9058 13.211 72.2058 11.115 65.3378C7.46502 53.3778 5.14602 40.7808 4.94002 36.6448C4.29202 23.6998 7.77701 14.4418 15.296 9.13077C27.157 0.752766 45.128 5.67977 51.68 7.91677C56.082 5.26377 61.261 3.97277 67.113 4.06577C70.256 4.11677 73.249 4.39277 76.029 4.88877C78.929 3.97677 84.657 2.66777 91.214 2.74977C103.295 2.89377 113.306 7.60177 120.163 16.3648C125.057 22.6168 122.637 35.7458 120.76 43.0158C118.118 53.2418 113.489 64.1178 107.803 73.5858C109.347 73.5968 111.584 73.4118 114.764 72.7548C121.038 71.4598 122.873 74.8238 123.371 76.3298C125.366 82.3718 116.694 86.9378 113.989 88.1938C110.523 89.8028 104.872 90.7828 100.244 90.5708L100.042 90.5578L98.826 90.4508L98.706 91.4648L98.59 92.4558C98.279 104.455 96.565 112.054 93.038 117.075C89.341 122.339 84.203 123.814 79.677 124.784C78.133 125.114 76.73 125.258 75.458 125.258V125.258ZM66.268 81.5868C69.087 83.8428 69.334 88.0878 69.555 96.0208C69.583 97.0108 69.609 97.9478 69.644 98.8228C69.75 101.473 69.999 107.678 70.971 110.3C71.108 110.671 71.231 111.047 71.361 111.446C72.444 114.762 72.987 116.425 77.67 115.424C81.601 114.581 83.622 113.825 85.204 111.573C87.503 108.299 88.789 101.713 89.025 91.9978L93.808 92.1138L89.058 91.5438L89.198 90.3578C89.653 86.4478 89.981 83.6238 92.594 81.7558C94.691 80.2578 97.08 80.4028 98.983 80.7458C96.892 79.1658 96.314 77.3128 96.16 76.5528L95.761 74.5878L96.882 72.9248C103.339 63.3448 108.663 51.5708 111.491 40.6208C114.397 29.3698 113.511 23.3948 112.625 22.2648C100.896 7.27777 80.557 13.4658 78.433 14.1678L78.074 14.3618L76.274 14.6968L75.352 14.5058C72.81 13.9778 69.986 13.6858 66.959 13.6368C62.203 13.5568 58.366 14.6808 55.22 17.0678L53.037 18.7228L50.504 17.6798C45.092 15.4668 29.196 11.0178 20.808 16.9588C16.152 20.2568 14.031 26.7188 14.503 36.1658C14.659 39.2848 16.778 51.0918 20.274 62.5428C25.105 78.3678 29.495 83.6248 31.328 84.2358C31.648 84.3438 32.478 83.6988 33.304 82.7068C36.748 78.5781 40.3143 74.553 43.998 70.6368L46.768 67.7218L50.117 69.9468C51.467 70.8438 52.956 71.3528 54.485 71.4488L62.472 64.6368L61.315 76.4448C61.289 76.7098 61.276 77.0708 61.38 77.7408L61.728 79.9788L60.218 81.6668L60.044 81.8628L64.432 83.8878L66.268 81.5868V81.5868Z" fill="black"/>
<path d="M115.731 77.4404C101.806 80.3134 100.849 75.5984 100.849 75.5984C115.552 53.7824 121.698 26.0884 116.394 19.3114C101.924 0.823424 76.8752 9.56642 76.4572 9.79342L76.3222 9.81742C73.5712 9.24642 70.4922 8.90642 67.0312 8.85042C60.7302 8.74742 55.9512 10.5024 52.3242 13.2524C52.3242 13.2524 7.64024 -5.15557 9.71824 36.4034C10.1602 45.2454 22.3902 103.302 36.9782 85.7664C42.3102 79.3544 47.4612 73.9324 47.4612 73.9324C50.0202 75.6314 53.0832 76.4994 56.2942 76.1874L56.5442 75.9754C56.4662 76.7714 56.5022 77.5504 56.6442 78.4724C52.8862 82.6714 53.9902 83.4084 46.4772 84.9544C38.8752 86.5204 43.3412 89.3094 46.2572 90.0384C49.7912 90.9224 57.9692 92.1744 63.4942 84.4404L63.2732 85.3224C64.7462 86.5024 65.7802 92.9944 65.6072 98.8794C65.4332 104.764 65.3172 108.805 66.4782 111.961C67.6382 115.117 68.7942 122.217 78.6702 120.101C86.9222 118.333 91.1982 113.75 91.7942 106.106C92.2162 100.671 93.1712 101.475 93.2322 96.6164L93.9992 94.3164C94.8832 86.9494 94.1392 84.5734 99.2242 85.6784L100.459 85.7864C104.201 85.9564 109.098 85.1844 111.973 83.8484C118.163 80.9774 121.834 76.1814 115.731 77.4404V77.4404Z" fill="#336791"/>
<path d="M75.957 122.306C67.725 122.306 65.117 115.787 64.05 113.121C62.488 109.214 62.151 94.0516 62.499 81.6176C62.5041 81.4079 62.5507 81.2014 62.6361 81.0098C62.7215 80.8182 62.8439 80.6453 62.9963 80.5013C63.1488 80.3572 63.3282 80.2447 63.5243 80.1703C63.7204 80.0959 63.9293 80.061 64.139 80.0676C64.3484 80.0733 64.5547 80.1203 64.7459 80.2057C64.9372 80.2912 65.1098 80.4136 65.2537 80.5658C65.3977 80.718 65.5102 80.8971 65.5849 81.0929C65.6596 81.2887 65.695 81.4972 65.689 81.7066C65.288 96.0476 65.857 109.044 67.013 111.936C68.817 116.445 71.553 120.389 79.288 118.732C86.631 117.157 89.381 114.373 90.606 107.272C91.546 101.823 93.405 86.3206 93.634 83.2616C93.6493 83.0526 93.7057 82.8486 93.8 82.6614C93.8943 82.4742 94.0246 82.3075 94.1834 82.1707C94.3423 82.034 94.5266 81.9299 94.7257 81.8645C94.9249 81.7991 95.135 81.7737 95.344 81.7896C95.7658 81.8216 96.1577 82.0196 96.4336 82.3402C96.7096 82.6608 96.8471 83.0778 96.816 83.4996C96.577 86.6846 94.727 102.157 93.751 107.815C92.305 116.202 88.566 120.006 79.957 121.852C78.494 122.165 77.165 122.305 75.957 122.306V122.306ZM31.321 90.4646C30.6014 90.4622 29.887 90.344 29.205 90.1146C23.858 88.3306 18.765 79.6226 14.067 64.2296C10.491 52.5126 8.22496 40.2826 8.02596 36.3076C7.43696 24.5236 10.471 16.1866 17.046 11.5296C30.053 2.31363 51.934 11.0896 52.859 11.4676C53.2508 11.6277 53.563 11.9369 53.727 12.3271C53.8909 12.7174 53.893 13.1568 53.733 13.5486C53.5729 13.9405 53.2637 14.2527 52.8735 14.4166C52.4832 14.5805 52.0438 14.5827 51.652 14.4226C51.441 14.3366 30.459 5.93063 18.884 14.1376C13.262 18.1236 10.681 25.5296 11.212 36.1486C11.379 39.4976 13.496 51.4336 17.118 63.2976C21.312 77.0396 26.085 85.7106 30.214 87.0876C30.862 87.3036 32.834 87.9606 35.653 84.5706C38.9404 80.6225 42.3511 76.7786 45.88 73.0446C46.1752 72.7501 46.5741 72.5829 46.9911 72.5787C47.4081 72.5745 47.8102 72.7338 48.1113 73.0223C48.4124 73.3109 48.5886 73.7059 48.6022 74.1227C48.6158 74.5395 48.4657 74.9451 48.184 75.2526C48.136 75.3026 43.337 80.3196 38.107 86.6116C35.63 89.5906 33.256 90.4646 31.321 90.4646V90.4646ZM100.75 77.0196C100.461 77.0193 100.177 76.9402 99.9291 76.7911C99.6812 76.6419 99.4786 76.4282 99.3428 76.1728C99.207 75.9173 99.1432 75.6298 99.1582 75.3409C99.1732 75.052 99.2665 74.7726 99.428 74.5326C114.291 52.4776 119.508 25.8286 115.04 20.1186C109.416 12.9326 101.475 9.17963 91.436 8.96263C84.003 8.80263 78.095 10.7006 77.129 11.0316L76.886 11.1306C75.915 11.4356 75.17 10.9036 74.889 10.2816C74.7287 9.92526 74.7045 9.52259 74.8207 9.14955C74.9369 8.77651 75.1857 8.45891 75.52 8.25663C75.566 8.22963 75.712 8.16763 75.949 8.08063L75.928 8.08663L75.949 8.07963C77.59 7.47863 83.588 5.67963 91.017 5.76463C102.125 5.88263 111.301 10.1656 117.551 18.1526C120.508 21.9316 120.515 30.6376 117.57 42.0396C114.568 53.6646 108.919 66.1576 102.073 76.3166C101.767 76.7736 101.263 77.0196 100.75 77.0196ZM101.51 87.2296C98.972 87.2296 96.697 86.8716 95.335 86.0556C93.935 85.2166 93.668 84.0766 93.633 83.4716C93.251 76.7616 96.953 75.5936 98.841 75.0606C98.578 74.6626 98.204 74.1946 97.817 73.7116C96.716 72.3356 95.208 70.4516 94.046 67.6336C93.864 67.1936 93.294 66.1706 92.634 64.9856C89.055 58.5676 81.608 45.2126 86.392 38.3736C88.606 35.2086 93.015 33.9626 99.511 34.6576C97.6 28.8356 88.5 10.6236 66.907 10.2696C60.413 10.1616 55.087 12.1586 51.085 16.1996C42.125 25.2486 42.449 41.6216 42.454 41.7856C42.4595 41.9951 42.4237 42.2036 42.3486 42.3992C42.2736 42.5948 42.1607 42.7738 42.0165 42.9258C41.8723 43.0778 41.6995 43.1999 41.5081 43.2851C41.3167 43.3704 41.1104 43.4171 40.901 43.4226C40.6915 43.4281 40.483 43.3924 40.2874 43.3173C40.0918 43.2422 39.9128 43.1294 39.7608 42.9852C39.6088 42.841 39.4867 42.6682 39.4014 42.4768C39.3162 42.2854 39.2695 42.0791 39.264 41.8696C39.244 41.1426 38.91 23.9606 48.818 13.9536C53.455 9.27063 59.559 6.95863 66.96 7.07963C80.774 7.30663 89.666 14.3296 94.692 20.1806C100.171 26.5576 102.857 33.5916 103.078 35.9396C103.243 37.6856 101.99 38.0346 101.737 38.0866L101.161 38.0996C94.786 37.0786 90.696 37.7876 89.005 40.2036C85.366 45.4046 92.411 58.0376 95.419 63.4326C96.187 64.8086 96.741 65.8036 96.995 66.4176C97.983 68.8136 99.272 70.4236 100.307 71.7176C101.218 72.8556 102.007 73.8426 102.289 75.0006C102.42 75.2306 104.279 77.9806 115.31 75.7036C118.075 75.1336 119.733 75.6206 120.24 77.1536C121.237 80.1686 115.643 83.6856 112.546 85.1236C109.771 86.4136 105.342 87.2296 101.51 87.2296V87.2296ZM96.814 83.2086C97.164 83.5616 98.915 84.1706 102.541 84.0146C105.765 83.8766 109.165 83.1756 111.205 82.2286C113.814 81.0166 115.556 79.6616 116.458 78.7366L115.958 78.8286C108.905 80.2846 103.916 80.0906 101.13 78.2516C100.943 78.1279 100.763 77.994 100.59 77.8506C100.288 77.9696 100.009 78.0476 99.81 78.1036C98.23 78.5466 96.596 79.0056 96.814 83.2086ZM51.252 92.1236C49.5 92.1236 47.656 91.8846 45.773 91.4136C43.822 90.9256 40.533 89.4566 40.583 87.0436C40.64 84.3366 44.577 83.5246 46.059 83.2196C51.413 82.1166 51.762 81.6746 53.435 79.5496C53.923 78.9306 54.53 78.1596 55.358 77.2356C56.587 75.8596 57.93 75.1626 59.35 75.1626C60.339 75.1626 61.15 75.4976 61.686 75.7206C63.394 76.4286 64.819 78.1406 65.405 80.1876C65.934 82.0346 65.681 83.8126 64.695 85.1936C61.458 89.7266 56.809 92.1236 51.252 92.1236ZM44.03 87.1806C44.511 87.5526 45.475 88.0496 46.548 88.3176C48.179 88.7256 49.761 88.9326 51.253 88.9326C55.799 88.9326 59.449 87.0506 62.1 83.3386C62.653 82.5646 62.487 81.5816 62.339 81.0646C62.029 79.9816 61.259 78.9966 60.466 78.6676C60.036 78.4896 59.679 78.3536 59.351 78.3536C59.175 78.3536 58.639 78.3536 57.737 79.3626C57.1145 80.0627 56.5162 80.7838 55.943 81.5246C53.859 84.1706 52.904 85.0686 46.704 86.3456C45.191 86.6556 44.415 86.9716 44.03 87.1806ZM56.299 79.8206C55.9181 79.82 55.5499 79.6832 55.2611 79.4349C54.9722 79.1866 54.7817 78.8431 54.724 78.4666C54.6843 78.2018 54.6576 77.9351 54.644 77.6676C50.58 77.5916 46.659 75.8476 43.682 72.7416C39.918 68.8146 38.205 63.3736 38.983 57.8146C39.828 51.7776 39.512 46.4486 39.342 43.5856C39.295 42.7896 39.261 42.2146 39.263 41.8166C39.266 41.3116 39.276 39.9726 43.752 37.7036C45.344 36.8966 48.536 35.4886 52.023 35.1276C57.8 34.5306 61.608 37.1036 62.748 42.3736C65.825 56.6016 62.992 62.8946 60.923 67.4906C60.538 68.3466 60.174 69.1546 59.883 69.9376L59.626 70.6276C58.533 73.5586 57.588 76.0906 57.878 77.9816C57.9098 78.1887 57.9005 78.4001 57.8507 78.6036C57.8008 78.8071 57.7113 78.9988 57.5873 79.1677C57.4634 79.3367 57.3073 79.4795 57.1281 79.5881C56.9489 79.6967 56.7501 79.7689 56.543 79.8006L56.299 79.8206ZM42.464 42.2586L42.526 43.3976C42.702 46.3716 43.03 51.9056 42.142 58.2576C41.501 62.8426 42.901 67.3176 45.985 70.5336C48.422 73.0756 51.629 74.4786 54.925 74.4786H54.993C55.362 72.9236 55.975 71.2816 56.635 69.5126L56.89 68.8266C57.219 67.9426 57.604 67.0866 58.012 66.1806C60.003 61.7566 62.482 56.2496 59.627 43.0486C59.062 40.4336 57.691 38.9206 55.438 38.4216C50.81 37.3996 43.913 40.8806 42.464 42.2586V42.2586ZM52.094 41.5816C52.014 42.1456 53.127 43.6516 54.579 43.8526C56.028 44.0556 57.268 42.8776 57.347 42.3136C57.426 41.7496 56.314 41.1276 54.862 40.9256C53.411 40.7236 52.171 41.0176 52.094 41.5816ZM54.912 44.4076L54.505 44.3796C53.605 44.2546 52.695 43.6876 52.072 42.8616C51.853 42.5716 51.496 42.0096 51.567 41.5076C51.668 40.7716 52.566 40.3306 53.967 40.3306C54.28 40.3306 54.606 40.3536 54.934 40.3996C55.7 40.5056 56.411 40.7266 56.936 41.0196C57.846 41.5276 57.913 42.0946 57.872 42.3876C57.76 43.2006 56.467 44.4076 54.912 44.4076V44.4076ZM52.623 41.6756C52.668 42.0236 53.53 43.1716 54.652 43.3266L54.913 43.3446C55.949 43.3446 56.723 42.5296 56.814 42.2626C56.718 42.0806 56.052 41.6286 54.789 41.4526C54.517 41.4136 54.2427 41.3939 53.968 41.3936C53.156 41.3936 52.725 41.5766 52.623 41.6756V41.6756ZM96.228 40.4306C96.307 40.9946 95.195 42.5006 93.744 42.7026C92.294 42.9046 91.053 41.7276 90.973 41.1636C90.897 40.5996 92.009 39.9766 93.459 39.7756C94.909 39.5726 96.148 39.8676 96.228 40.4306V40.4306ZM93.409 42.9906C92.013 42.9906 90.808 41.9046 90.709 41.1996C90.594 40.3536 91.987 39.7106 93.421 39.5116C93.737 39.4676 94.05 39.4456 94.351 39.4456C95.589 39.4456 96.409 39.8086 96.491 40.3946C96.544 40.7736 96.253 41.3586 95.752 41.8866C95.421 42.2336 94.726 42.8346 93.779 42.9656L93.409 42.9906V42.9906ZM94.352 39.9776C94.076 39.9776 93.788 39.9986 93.496 40.0386C92.055 40.2396 91.195 40.8176 91.237 41.1276C91.285 41.4686 92.205 42.4596 93.41 42.4596L93.707 42.4386C94.494 42.3296 95.085 41.8156 95.367 41.5196C95.81 41.0546 95.986 40.6166 95.965 40.4676C95.937 40.2696 95.405 39.9776 94.352 39.9776ZM98.317 72.8206C98.0279 72.8208 97.7442 72.7424 97.4963 72.5937C97.2483 72.445 97.0455 72.2317 96.9095 71.9766C96.7735 71.7215 96.7094 71.4343 96.7241 71.1456C96.7388 70.8569 96.8317 70.5776 96.993 70.3376C100.391 65.2626 99.769 60.0876 99.168 55.0826C98.911 52.9506 98.647 50.7456 98.715 48.6296C98.785 46.4526 99.062 44.6566 99.329 42.9196C99.646 40.8616 99.946 38.9176 99.822 36.6096C99.8107 36.4004 99.8407 36.1911 99.9103 35.9935C99.9799 35.7959 100.088 35.6139 100.228 35.458C100.368 35.3021 100.537 35.1753 100.726 35.0848C100.915 34.9943 101.12 34.9419 101.329 34.9306C101.538 34.9193 101.748 34.9494 101.945 35.019C102.143 35.0886 102.325 35.1965 102.481 35.3364C102.636 35.4763 102.763 35.6456 102.854 35.8346C102.944 36.0235 102.997 36.2284 103.008 36.4376C103.15 39.0756 102.811 41.2756 102.483 43.4046C102.23 45.0476 101.968 46.7466 101.905 48.7316C101.844 50.6056 102.083 52.5956 102.336 54.7016C102.976 60.0236 103.701 66.0556 99.645 72.1126C99.4989 72.3308 99.3013 72.5095 99.0696 72.633C98.838 72.7565 98.5795 72.8209 98.317 72.8206V72.8206Z" fill="white"/>
</svg>
