<svg width="128" height="128" viewBox="0 0 128 128" fill="none" xmlns="http://www.w3.org/2000/svg">
<path d="M63.3912 12.2469C59.1692 12.2669 55.1392 12.6259 51.5912 13.2539C41.1412 15.0999 39.2452 18.9639 39.2452 26.0909V35.5019H63.9382V38.6389H29.9772C22.8012 38.6389 16.5172 42.9519 14.5512 51.1599C12.2832 60.5649 12.1832 66.4349 14.5512 76.2559C16.3062 83.5669 20.4982 88.7749 27.6752 88.7749H36.1662V77.4929C36.1662 69.3419 43.2172 62.1529 51.5922 62.1529H76.2572C83.1232 62.1529 88.6032 56.4989 88.6032 49.6049V26.0919C88.6032 19.3989 82.9572 14.3719 76.2572 13.2549C72.0132 12.5489 67.6122 12.2279 63.3912 12.2469V12.2469ZM50.0372 19.8159C52.5872 19.8159 54.6712 21.9329 54.6712 24.5369C54.6712 27.1299 52.5882 29.2269 50.0372 29.2269C47.4772 29.2269 45.4042 27.1299 45.4042 24.5369C45.4032 21.9329 47.4772 19.8159 50.0372 19.8159V19.8159Z" fill="url(#paint0_linear_132_37)"/>
<path d="M91.6821 38.6416V49.6076C91.6821 58.1076 84.4741 65.2626 76.2561 65.2626H51.5911C44.8351 65.2626 39.2451 71.0456 39.2451 77.8116V101.327C39.2451 108.018 45.0631 111.955 51.5911 113.874C59.4071 116.171 66.9031 116.587 76.2561 113.874C82.4721 112.073 88.6021 108.451 88.6021 101.327V91.9146H63.9381V88.7766H100.95C108.126 88.7766 110.802 83.7716 113.298 76.2576C115.876 68.5226 115.765 61.0836 113.298 51.1616C111.524 44.0166 108.137 38.6406 100.95 38.6406H91.6821V38.6416ZM77.8091 98.1886C80.3701 98.1886 82.4431 100.286 82.4431 102.881C82.4431 105.483 80.3691 107.6 77.8091 107.6C75.2591 107.6 73.1761 105.483 73.1761 102.881C73.1761 100.286 75.2591 98.1886 77.8091 98.1886V98.1886Z" fill="url(#paint1_linear_132_37)"/>
<path opacity="0.444" d="M97.309 119.597C97.309 123.14 82.493 126.013 64.218 126.013C45.942 126.013 31.126 123.14 31.126 119.597C31.126 116.053 45.941 113.18 64.218 113.18C82.493 113.18 97.309 116.052 97.309 119.597Z" fill="url(#paint2_radial_132_37)"/>
<defs>
<linearGradient id="paint0_linear_132_37" x1="10.3371" y1="15.1895" x2="67.2909" y2="63.7594" gradientUnits="userSpaceOnUse">
<stop stop-color="#5A9FD4"/>
<stop offset="1" stop-color="#306998"/>
</linearGradient>
<linearGradient id="paint1_linear_132_37" x1="88.719" y1="93.954" x2="68.2944" y2="65.3119" gradientUnits="userSpaceOnUse">
<stop stop-color="#FFD43B"/>
<stop offset="1" stop-color="#FFE873"/>
</linearGradient>
<radialGradient id="paint2_radial_132_37" cx="0" cy="0" r="1" gradientUnits="userSpaceOnUse" gradientTransform="translate(64.0842 119.413) rotate(-90) scale(6.41832 28.2139)">
<stop stop-color="#B8B8B8" stop-opacity="0.498"/>
<stop offset="1" stop-color="#7F7F7F" stop-opacity="0"/>
</radialGradient>
</defs>
</svg>
