<svg width="128" height="128" viewBox="0 0 128 128" fill="none" xmlns="http://www.w3.org/2000/svg">
<path d="M100.1 38.3L90.9001 47.5C106 62.6 106 86.9 90.9001 101.8C75.8001 116.9 51.5001 116.9 36.6001 101.8C21.5001 86.7 21.5001 62.4 36.6001 47.5L60.6001 23.5L64.0001 20.1V2L27.8001 38.2C7.7001 58.3 7.7001 90.8 27.8001 111C47.9001 131.2 80.4001 131.1 100.2 111C120.3 90.8 120.3 58.5 100.1 38.3V38.3Z" fill="#EE4C2C"/>
<path d="M88.7694 29.4948C88.8379 25.7952 85.8944 22.7406 82.1948 22.6721C78.4953 22.6036 75.4406 25.5471 75.3721 29.2467C75.3036 32.9462 78.2471 36.0009 81.9467 36.0694C85.6463 36.1379 88.7009 33.1943 88.7694 29.4948Z" fill="#EE4C2C"/>
</svg>
