<svg width="33" height="33" viewBox="0 0 33 33" fill="none" xmlns="http://www.w3.org/2000/svg">
<path d="M30.255 15.9013L29.0631 15.1643C29.0631 15.0485 29.0428 14.9328 29.0285 14.8171L30.0438 13.8607C30.096 13.8136 30.1351 13.7537 30.1573 13.687C30.1794 13.6202 30.1839 13.5489 30.1702 13.4799C30.1564 13.4109 30.125 13.3467 30.079 13.2935C30.0331 13.2403 29.974 13.1999 29.9078 13.1764L28.5981 12.6871C28.5656 12.5734 28.5311 12.4617 28.4966 12.348L29.3088 11.2129C29.3518 11.1554 29.3787 11.0875 29.3869 11.0162C29.3951 10.9448 29.3843 10.8726 29.3555 10.8068C29.33 10.7434 29.2889 10.6874 29.236 10.6441C29.1831 10.6008 29.1201 10.5716 29.0529 10.5591L27.6722 10.3337C27.6194 10.2281 27.5625 10.1307 27.5057 10.023L28.0864 8.74788C28.1168 8.68434 28.1301 8.61398 28.1251 8.54373C28.1201 8.47347 28.0969 8.40573 28.0577 8.34715C28.0186 8.28858 27.9649 8.24119 27.902 8.20963C27.839 8.17807 27.7689 8.16344 27.6986 8.16716L26.2975 8.21589C26.2244 8.12655 26.1513 8.03517 26.0762 7.94583L26.397 6.59149C26.4155 6.5231 26.4157 6.45108 26.3977 6.38257C26.3797 6.31407 26.3441 6.25146 26.2944 6.20097C26.2447 6.15047 26.1827 6.11385 26.1145 6.09473C26.0463 6.07561 25.9743 6.07467 25.9056 6.09198L24.5411 6.41483C24.4518 6.34376 24.3665 6.27067 24.2711 6.19757L24.3198 4.79652C24.3228 4.72675 24.3077 4.6574 24.2761 4.59515C24.2444 4.53291 24.1972 4.47988 24.1391 4.44118C24.0803 4.40048 24.0117 4.37604 23.9404 4.37033C23.8691 4.36463 23.7975 4.37786 23.733 4.4087L22.4578 4.98942L22.1472 4.82292L21.9299 3.44218C21.9188 3.37293 21.89 3.30773 21.8462 3.25293C21.8025 3.19813 21.7452 3.1556 21.6802 3.12948C21.6144 3.10066 21.5421 3.0898 21.4708 3.09801C21.3995 3.10621 21.3316 3.13319 21.2741 3.17618L20.139 3.98838L19.8019 3.88686L19.3248 2.57921C19.3019 2.51248 19.2621 2.45285 19.2092 2.40619C19.1563 2.35953 19.0922 2.32745 19.0231 2.31311C18.9541 2.29876 18.8825 2.30265 18.8154 2.32439C18.7483 2.34613 18.688 2.38496 18.6405 2.43708L17.6841 3.46248L17.3369 3.43405L16.5978 2.23403C16.5618 2.17343 16.5107 2.12323 16.4495 2.08836C16.3883 2.05349 16.319 2.03516 16.2486 2.03516C16.1781 2.03516 16.1088 2.05349 16.0476 2.08836C15.9864 2.12323 15.9353 2.17343 15.8993 2.23403L15.1622 3.42593L14.8231 3.46857L13.8587 2.43708C13.8116 2.38485 13.7517 2.34574 13.685 2.32359C13.6182 2.30144 13.5469 2.29701 13.4779 2.31072C13.4089 2.32444 13.3447 2.35583 13.2915 2.40183C13.2383 2.44782 13.1979 2.50685 13.1744 2.57312L12.683 3.88279L12.3459 3.98432L11.2109 3.17212C11.1546 3.12982 11.0882 3.1029 11.0183 3.094C10.9484 3.0851 10.8775 3.09453 10.8123 3.12136C10.7472 3.14819 10.6902 3.19149 10.6468 3.24703C10.6035 3.30256 10.5754 3.36842 10.5652 3.43811L10.3398 4.81886C10.2383 4.87368 10.1327 4.93257 10.0312 4.98942L8.756 4.4087C8.69145 4.37786 8.6199 4.36463 8.54858 4.37033C8.47727 4.37604 8.40873 4.40048 8.3499 4.44118C8.29177 4.47988 8.2446 4.53291 8.21294 4.59515C8.18129 4.6574 8.16622 4.72675 8.16919 4.79652L8.21792 6.19757C8.12858 6.27067 8.0372 6.34377 7.94786 6.41889L6.58946 6.09198C6.52037 6.07333 6.44759 6.07327 6.37848 6.09179C6.30936 6.11032 6.24637 6.14678 6.19587 6.19748C6.14538 6.24818 6.10918 6.31132 6.09093 6.38051C6.07269 6.4497 6.07305 6.52248 6.09198 6.59149L6.41889 7.95802C6.34376 8.04736 6.27067 8.13467 6.19757 8.22807L4.79652 8.17934C4.72618 8.17562 4.65609 8.19026 4.59312 8.22181C4.53015 8.25337 4.47647 8.30076 4.43735 8.35934C4.39823 8.41791 4.37502 8.48565 4.37 8.55591C4.36497 8.62616 4.37831 8.69652 4.4087 8.76006L4.98942 10.0312C4.93256 10.1327 4.87774 10.2342 4.82292 10.3418L3.44218 10.5591C3.37248 10.5693 3.30663 10.5974 3.25109 10.6407C3.19556 10.6841 3.15225 10.7411 3.12542 10.8062C3.09859 10.8714 3.08916 10.9424 3.09806 11.0122C3.10696 11.0821 3.13388 11.1485 3.17618 11.2048L3.98838 12.3398C3.95386 12.4515 3.91934 12.5652 3.88686 12.6789L2.57921 13.1764C2.51294 13.1999 2.45391 13.2403 2.40792 13.2935C2.36192 13.3467 2.33053 13.4109 2.31681 13.4799C2.3031 13.5489 2.30754 13.6202 2.32968 13.687C2.35183 13.7537 2.39094 13.8136 2.44317 13.8607L3.46857 14.8231C3.45233 14.9328 3.45233 15.0485 3.43405 15.1643L2.23403 15.9013C2.17343 15.9373 2.12323 15.9884 2.08836 16.0496C2.05349 16.1109 2.03516 16.1801 2.03516 16.2506C2.03516 16.3211 2.05349 16.3903 2.08836 16.4515C2.12323 16.5128 2.17343 16.5639 2.23403 16.5998L3.43405 17.3369C3.45233 17.4628 3.45233 17.5704 3.46857 17.6841L2.43708 18.6405C2.38485 18.6876 2.34574 18.7474 2.32359 18.8142C2.30144 18.8809 2.29701 18.9523 2.31072 19.0213C2.32444 19.0903 2.35583 19.1545 2.40183 19.2077C2.44782 19.2609 2.50685 19.3012 2.57312 19.3248L3.88889 19.8162C3.92137 19.9299 3.95589 20.0436 3.99041 20.1552L3.17821 21.2903C3.13704 21.3467 3.11111 21.4128 3.10292 21.4821C3.09474 21.5515 3.10459 21.6218 3.13151 21.6863C3.15791 21.751 3.20056 21.8078 3.25534 21.8512C3.31012 21.8946 3.37517 21.9231 3.44421 21.934L4.82495 22.1594C4.87774 22.2649 4.9346 22.3624 4.99145 22.47L4.41073 23.7431C4.38034 23.8067 4.367 23.877 4.37203 23.9473C4.37705 24.0176 4.40026 24.0853 4.43938 24.1439C4.4785 24.2025 4.53218 24.2498 4.59515 24.2814C4.65812 24.313 4.72821 24.3276 4.79855 24.3239L6.1996 24.2751C6.2727 24.3665 6.3458 24.4559 6.42092 24.5452L6.09198 25.9077C6.07526 25.976 6.07658 26.0475 6.0958 26.1152C6.11503 26.1829 6.15151 26.2444 6.20166 26.2937C6.25181 26.343 6.31392 26.3785 6.3819 26.3966C6.44989 26.4147 6.5214 26.4149 6.58946 26.397L7.95598 26.0762L8.22604 26.2975L8.17731 27.7006C8.17396 27.7708 8.18886 27.8406 8.22058 27.9033C8.25229 27.966 8.29972 28.0194 8.35823 28.0582C8.41674 28.0971 8.48434 28.1201 8.55441 28.1251C8.62449 28.13 8.69465 28.1167 8.75803 28.0864L10.0332 27.5057C10.1347 27.5625 10.2362 27.6174 10.3439 27.6722L10.5591 29.059C10.57 29.128 10.5985 29.1931 10.6419 29.2479C10.6853 29.3026 10.7421 29.3453 10.8068 29.3717C10.8726 29.3998 10.9446 29.4104 11.0157 29.4026C11.0869 29.3948 11.1548 29.3688 11.2129 29.327L12.348 28.5148L12.6871 28.6164L13.1784 29.926C13.202 29.9923 13.2423 30.0513 13.2955 30.0973C13.3487 30.1433 13.413 30.1747 13.4819 30.1884C13.5509 30.2021 13.6223 30.1977 13.689 30.1756C13.7558 30.1534 13.8156 30.1143 13.8627 30.0621L14.8231 29.0367C14.9389 29.0509 15.0546 29.061 15.1724 29.0712L15.9034 30.255C15.9395 30.3151 15.9905 30.3649 16.0515 30.3994C16.1125 30.434 16.1815 30.4521 16.2516 30.4521C16.3217 30.4521 16.3907 30.434 16.4517 30.3994C16.5127 30.3649 16.5638 30.3151 16.5998 30.255L17.3369 29.0631L17.6841 29.0367L18.6405 30.0519C18.6876 30.1042 18.7474 30.1433 18.8142 30.1654C18.8809 30.1876 18.9523 30.192 19.0213 30.1783C19.0903 30.1646 19.1545 30.1332 19.2077 30.0872C19.2609 30.0412 19.3012 29.9822 19.3248 29.9159L19.8162 28.6062L20.1552 28.5047L21.2903 29.3169C21.348 29.3595 21.416 29.3862 21.4873 29.394C21.5587 29.4019 21.6308 29.3907 21.6964 29.3616C21.7611 29.3352 21.8179 29.2925 21.8613 29.2377C21.9047 29.1829 21.9332 29.1179 21.9441 29.0489L22.1695 27.6681L22.4802 27.5016L23.7553 28.0823C23.8186 28.1121 23.8886 28.1251 23.9583 28.1199C24.0281 28.1148 24.0954 28.0916 24.1536 28.0528C24.2118 28.014 24.259 27.9608 24.2906 27.8984C24.3222 27.836 24.3372 27.7664 24.334 27.6965L24.2853 26.2935L24.5553 26.0721L25.9097 26.397C25.9777 26.4133 26.0487 26.4118 26.116 26.3926C26.1832 26.3734 26.2443 26.3371 26.2935 26.2874C26.3415 26.238 26.3762 26.1773 26.3943 26.1109C26.4124 26.0445 26.4134 25.9745 26.397 25.9077L26.0762 24.5411C26.1513 24.4518 26.2244 24.3645 26.2975 24.2711L27.6986 24.3198C27.7683 24.3228 27.8377 24.3077 27.8999 24.2761C27.9622 24.2444 28.0152 24.1972 28.0539 24.1391C28.0943 24.0801 28.1184 24.0114 28.1237 23.9401C28.1291 23.8688 28.1155 23.7974 28.0844 23.733L27.5036 22.4599C27.5585 22.3583 27.6153 22.2568 27.6701 22.1492L29.0509 21.9238C29.1202 21.9134 29.1857 21.8853 29.241 21.8421C29.2962 21.7989 29.3393 21.7421 29.3661 21.6773C29.3929 21.6125 29.4024 21.5418 29.3938 21.4722C29.3852 21.4026 29.3587 21.3365 29.3169 21.2801L28.5047 20.1451C28.5392 20.0334 28.5737 19.9197 28.6062 19.806L29.9159 19.3167C29.9814 19.2924 30.0396 19.2516 30.0848 19.1982C30.13 19.1449 30.1606 19.0807 30.1738 19.0121C30.1864 18.9449 30.1818 18.8756 30.1605 18.8107C30.1392 18.7457 30.1019 18.6872 30.0519 18.6405L29.0367 17.6841C29.0489 17.5684 29.059 17.4526 29.0712 17.3369L30.255 16.5998C30.3156 16.5639 30.3658 16.5128 30.4006 16.4515C30.4355 16.3903 30.4538 16.3211 30.4538 16.2506C30.4538 16.1801 30.4355 16.1109 30.4006 16.0496C30.3658 15.9884 30.3156 15.9373 30.255 15.9013ZM22.271 25.7879C22.1075 25.7531 21.9579 25.6707 21.8413 25.5509C21.7246 25.4311 21.6462 25.2794 21.6158 25.1149C21.5855 24.9505 21.6046 24.7808 21.6708 24.6272C21.737 24.4737 21.8472 24.3433 21.9876 24.2524C22.128 24.1616 22.2921 24.1145 22.4593 24.117C22.6265 24.1195 22.7892 24.1716 22.9267 24.2667C23.0643 24.3618 23.1705 24.4955 23.232 24.651C23.2935 24.8065 23.3074 24.9767 23.2721 25.1401C23.2243 25.3583 23.0924 25.5488 22.9049 25.6701C22.7174 25.7914 22.4896 25.8337 22.271 25.7879ZM21.8649 23.0487C21.7663 23.0276 21.6644 23.0261 21.5652 23.0443C21.4659 23.0626 21.3712 23.1002 21.2866 23.1551C21.2019 23.21 21.1288 23.281 21.0717 23.3642C21.0145 23.4473 20.9742 23.5409 20.9532 23.6396L20.5289 25.6153C19.168 26.2315 17.6904 26.5477 16.1965 26.5424C14.7026 26.5372 13.2273 26.2106 11.8708 25.5848L11.4464 23.6091C11.4036 23.4101 11.2835 23.2361 11.1126 23.1253C10.9418 23.0146 10.7339 22.9761 10.5347 23.0183L8.79052 23.3919C8.46675 23.0583 8.16557 22.7035 7.88898 22.3299H16.3765C16.4719 22.3299 16.5369 22.3116 16.5369 22.2243V19.2151C16.5369 19.1278 16.4719 19.1095 16.3765 19.1095H13.8932V17.207H16.5775C16.9762 17.2106 17.3608 17.3554 17.663 17.6156C17.9652 17.8757 18.1655 18.2345 18.2283 18.6283C18.3339 19.0466 18.5694 20.4091 18.7298 20.8456C18.8353 21.1971 19.0284 21.5159 19.2908 21.7724C19.5533 22.0288 19.8766 22.2143 20.2304 22.3116H24.4599C24.511 22.3113 24.562 22.3066 24.6122 22.2974C24.3194 22.6962 23.9984 23.0734 23.6518 23.4264L21.867 23.0426L21.8649 23.0487ZM10.1286 25.7473C9.96528 25.7825 9.79516 25.7685 9.63978 25.707C9.4844 25.6456 9.35074 25.5394 9.25571 25.4019C9.16068 25.2645 9.10855 25.102 9.10591 24.9349C9.10328 24.7678 9.15025 24.6037 9.2409 24.4633C9.33154 24.323 9.46179 24.2126 9.61515 24.1463C9.76851 24.08 9.93811 24.0606 10.1025 24.0907C10.2668 24.1207 10.4186 24.1989 10.5386 24.3152C10.6585 24.4315 10.7413 24.5808 10.7764 24.7442C10.8005 24.8529 10.8029 24.9653 10.7833 25.0749C10.7638 25.1845 10.7227 25.2892 10.6625 25.3828C10.6023 25.4765 10.5241 25.5572 10.4324 25.6205C10.3408 25.6837 10.2375 25.7282 10.1286 25.7513V25.7473ZM6.90418 12.6972C6.97136 12.8496 6.99186 13.0186 6.96308 13.1826C6.9343 13.3467 6.85753 13.4986 6.74248 13.619C6.62743 13.7395 6.47926 13.8232 6.31668 13.8595C6.1541 13.8958 5.98442 13.883 5.82906 13.8229C5.6737 13.7628 5.53964 13.658 5.44381 13.5218C5.34799 13.3855 5.2947 13.2239 5.29068 13.0574C5.28665 12.8909 5.33208 12.7269 5.42121 12.5862C5.51035 12.4454 5.63919 12.3343 5.79147 12.2667C5.99614 12.1766 6.22823 12.1712 6.43682 12.2519C6.64542 12.3326 6.81349 12.4928 6.90418 12.6972ZM5.92142 15.0424L7.73872 14.2302C7.92284 14.1461 8.06636 13.9927 8.1382 13.8034C8.21003 13.6142 8.20439 13.4042 8.12249 13.2191L7.75496 12.3723H9.22505V19.006H6.25645C5.98991 18.0818 5.85323 17.1251 5.85035 16.1633C5.85058 15.7903 5.87023 15.4175 5.90924 15.0465L5.92142 15.0424ZM13.8952 14.3988V12.4454H17.3999C17.6986 12.4451 17.9885 12.547 18.2212 12.7343C18.4539 12.9216 18.6155 13.183 18.6791 13.4749C18.5898 13.7955 18.3812 14.0698 18.0962 14.2415C17.8111 14.4133 17.4712 14.4696 17.146 14.3988H13.8952ZM26.6305 16.1572C26.6305 16.4171 26.621 16.6736 26.6021 16.9268H25.5341C25.5119 16.9257 25.4897 16.9297 25.4694 16.9385C25.449 16.9473 25.4308 16.9606 25.4163 16.9774C25.4019 16.9943 25.3914 17.0142 25.3858 17.0356C25.3801 17.0571 25.3795 17.0796 25.3838 17.1014V17.5928C25.4139 17.7712 25.4052 17.9541 25.3581 18.1289C25.3111 18.3036 25.2268 18.4662 25.1111 18.6054C24.9954 18.7446 24.8511 18.8572 24.6879 18.9354C24.5246 19.0137 24.3465 19.0557 24.1655 19.0588C23.9296 19.1024 23.6861 19.0721 23.4681 18.9722C23.25 18.8723 23.0681 18.7075 22.9472 18.5004C22.9084 17.9268 22.7348 17.3704 22.4406 16.8764C22.1463 16.3825 21.7397 15.9649 21.2537 15.6577C21.8256 15.3812 22.3197 14.9667 22.6916 14.4517C23.0634 13.9366 23.3013 13.3372 23.3837 12.7074C23.3628 12.1516 23.2032 11.6098 22.9195 11.1315C22.6358 10.6531 22.237 10.2532 21.7593 9.96821C21.0902 9.53594 20.3209 9.28348 19.5258 9.2352H8.50828C10.0304 7.53135 12.0725 6.37785 14.3176 5.95391L15.6171 7.31028C15.7581 7.45727 15.9516 7.54238 16.1552 7.54695C16.3588 7.55151 16.556 7.47517 16.7034 7.33465L18.1572 5.94985C19.6381 6.22824 21.0408 6.82535 22.2679 7.69979C23.4951 8.57422 24.5174 9.70506 25.264 11.0139L24.2711 13.2597C24.189 13.4463 24.1841 13.6579 24.2576 13.8481C24.331 14.0384 24.4767 14.1918 24.663 14.2749L26.5777 15.1277C26.6122 15.4668 26.6285 15.812 26.6285 16.1592L26.6305 16.1572ZM15.6191 4.78637C15.7399 4.67173 15.8919 4.59543 16.056 4.56711C16.22 4.53879 16.3888 4.55971 16.541 4.62724C16.6932 4.69477 16.822 4.80587 16.9111 4.94653C17.0002 5.08718 17.0457 5.25109 17.0417 5.41755C17.0377 5.58401 16.9845 5.74556 16.8888 5.88182C16.7931 6.01807 16.6592 6.12292 16.504 6.18313C16.3487 6.24334 16.1791 6.25621 16.0166 6.22011C15.854 6.18401 15.7058 6.10056 15.5907 5.9803C15.4379 5.81907 15.355 5.60403 15.3599 5.38197C15.3649 5.1599 15.4573 4.94877 15.6171 4.79449L15.6191 4.78637ZM25.4914 12.7297C25.5594 12.5777 25.6709 12.4493 25.8118 12.3606C25.9527 12.2719 26.1168 12.2269 26.2832 12.2314C26.4497 12.2359 26.6111 12.2896 26.747 12.3857C26.883 12.4818 26.9875 12.616 27.0472 12.7715C27.1069 12.9269 27.1193 13.0965 27.0827 13.259C27.0461 13.4214 26.9622 13.5694 26.8416 13.6842C26.721 13.7989 26.569 13.8754 26.405 13.904C26.241 13.9325 26.0721 13.9118 25.9198 13.8444C25.7173 13.7534 25.5588 13.5862 25.4786 13.379C25.3984 13.1719 25.403 12.9416 25.4914 12.7378V12.7297Z" fill="#A72146"/>
</svg>
