<svg width="128" height="128" viewBox="0 0 128 128" fill="none" xmlns="http://www.w3.org/2000/svg">
<path fill-rule="evenodd" clip-rule="evenodd" d="M62.271 10.8815C62.082 10.9915 61.289 12.1295 60.508 13.4105C58.548 16.6275 58.526 16.6295 55.893 13.8585C54.18 12.0565 53.766 11.7265 53.214 11.7305C52.855 11.7325 52.402 11.8545 52.206 12.0015C52.011 12.1485 51.458 13.3185 50.978 14.6015C49.879 17.5405 49.826 17.6355 49.217 17.7525C48.842 17.8235 48.12 17.4215 46.389 16.1785C45.111 15.2595 43.857 14.5085 43.603 14.5085C42.549 14.5085 42.252 15.0845 41.75 18.1015C41.112 21.9375 41.134 21.9245 37.676 20.3535C36.28 19.7205 34.956 19.2015 34.733 19.2015C34.51 19.2015 34.087 19.4415 33.794 19.7345C33.262 20.2675 33.261 20.2695 33.406 23.2025L33.552 26.1385L32.997 26.4355C32.505 26.6985 32.166 26.6665 29.988 26.1515C27.145 25.4805 26.545 25.4985 25.969 26.2735L25.548 26.8395L26.113 29.2605C26.423 30.5915 26.722 31.8735 26.778 32.1085C26.833 32.3425 26.738 32.7175 26.566 32.9405C26.282 33.3075 25.98 33.3405 23.349 33.3005C18.896 33.2305 18.643 33.6125 20.483 37.6285C21.068 38.9035 21.547 40.0615 21.547 40.2005C21.547 40.9345 20.962 41.2015 18.449 41.6115C17.043 41.8405 15.821 42.0285 15.733 42.0285C15.645 42.0285 15.381 42.2205 15.147 42.4545C14.382 43.2195 14.599 43.9375 16.334 46.3865C18.495 49.4365 18.491 49.4475 14.921 50.8135C10.861 52.3665 10.779 52.7495 13.87 55.6815C16.749 58.4115 16.752 58.3715 13.493 60.4205C11.024 61.9715 10.986 62.0085 10.923 62.8495C10.847 63.8725 10.865 63.8905 13.813 65.6915C16.728 67.4715 16.728 67.5255 13.867 70.2325C10.79 73.1425 10.885 73.5675 14.948 75.1005C18.498 76.4395 18.503 76.4555 16.338 79.5055C15.111 81.2345 14.72 81.9545 14.72 82.4885C14.72 83.4875 15.24 83.7425 18.347 84.2645C20.964 84.7055 21.547 84.9645 21.547 85.6865C21.547 85.8345 21.067 87.0025 20.48 88.2805C18.654 92.2575 18.862 92.5885 23.184 92.5885C27.209 92.5885 27.102 92.4655 26.235 96.0955C25.581 98.8315 25.571 99.3555 26.163 99.9465C26.616 100.4 27.47 100.349 30.141 99.7105C32.181 99.2235 32.539 99.1895 33.012 99.4425L33.552 99.7315L33.406 102.666C33.261 105.6 33.262 105.602 33.794 106.135C34.087 106.428 34.516 106.668 34.746 106.668C34.976 106.668 36.3 106.152 37.689 105.521C41.136 103.956 41.114 103.943 41.75 107.767C42.254 110.798 42.548 111.361 43.624 111.361C43.891 111.361 45.118 110.641 46.352 109.761C48.519 108.215 49.081 107.973 49.658 108.34C49.807 108.434 50.385 109.704 50.942 111.162C51.761 113.306 52.061 113.864 52.517 114.082C53.385 114.498 53.922 114.164 55.962 111.942C58.425 109.259 58.526 109.272 60.537 112.531C62.758 116.129 63.333 116.121 65.61 112.458C67.572 109.302 67.549 109.304 70.201 112.074C71.962 113.912 72.337 114.205 72.931 114.205C73.31 114.205 73.763 114.063 73.936 113.889C74.11 113.715 74.686 112.43 75.216 111.034C75.746 109.637 76.295 108.421 76.437 108.331C76.998 107.974 77.579 108.225 79.743 109.761C81.017 110.666 82.216 111.361 82.501 111.361C83.559 111.361 83.941 110.61 84.381 107.658C84.757 105.141 84.833 104.9 85.328 104.649C85.815 104.402 86.107 104.485 88.391 105.522C89.78 106.152 91.104 106.668 91.334 106.668C91.564 106.668 92 106.421 92.301 106.119L92.85 105.571L92.699 102.756C92.555 100.068 92.568 99.9245 92.997 99.5365C93.438 99.1375 93.483 99.1395 95.949 99.7025C98.935 100.384 99.492 100.402 100.053 99.8415C100.601 99.2935 100.595 99.1735 99.845 96.0105C99.004 92.4625 98.891 92.5885 102.933 92.5885C105.688 92.5885 105.995 92.5495 106.346 92.1625C106.932 91.5145 106.793 90.7725 105.614 88.2595C105.019 86.9935 104.536 85.8415 104.54 85.6995C104.56 84.9525 105.147 84.6975 107.86 84.2565C109.52 83.9875 110.762 83.6755 110.987 83.4725C111.741 82.7915 111.464 81.9055 109.743 79.4925C107.586 76.4685 107.595 76.4395 111.049 75.1665C115.185 73.6425 115.303 73.1345 112.208 70.1935C109.341 67.4695 109.34 67.4845 112.48 65.5565C116.276 63.2265 116.282 62.7015 112.547 60.3835C109.335 58.3905 109.337 58.4185 112.216 55.6845C115.304 52.7505 115.22 52.3665 111.159 50.8135C107.575 49.4425 107.564 49.4085 109.742 46.4195C111.039 44.6395 111.36 44.0485 111.36 43.4385C111.36 42.3725 110.882 42.1335 107.738 41.6255C105.111 41.2015 104.533 40.9435 104.533 40.1965C104.533 40.0545 105.013 38.9115 105.6 37.6545C106.749 35.1935 106.91 34.2085 106.26 33.6195C105.911 33.3035 105.443 33.2585 102.939 33.2995C100.319 33.3435 99.984 33.3065 99.621 32.9415C99.224 32.5425 99.228 32.4865 99.848 29.8995C100.608 26.7295 100.611 26.6525 99.986 26.0655C99.352 25.4695 98.956 25.4795 96.045 26.1645C93.924 26.6645 93.573 26.6975 93.091 26.4395L92.544 26.1465L92.695 23.2205L92.847 20.2955L92.3 19.7485C91.999 19.4475 91.572 19.2015 91.35 19.2015C91.129 19.2015 89.812 19.7245 88.424 20.3625C86.106 21.4295 85.857 21.5005 85.356 21.2385C84.856 20.9765 84.773 20.7185 84.346 18.1115C83.853 15.0955 83.548 14.5085 82.477 14.5085C82.223 14.5085 80.964 15.2635 79.679 16.1865C77.569 17.7025 77.286 17.8455 76.76 17.6625C76.325 17.5105 76.072 17.1795 75.763 16.3565C75.534 15.7505 75.096 14.5825 74.788 13.7615C74.166 12.1055 73.819 11.7345 72.887 11.7345C72.367 11.7345 71.896 12.1085 70.208 13.8615C67.555 16.6175 67.545 16.6165 65.594 13.4165C64.814 12.1375 63.999 10.9955 63.782 10.8795C63.294 10.6175 62.72 10.6185 62.271 10.8815M64.689 20.5165C67 22.1615 65.771 26.0285 62.937 26.0285C60.187 26.0285 58.802 22.7155 60.766 20.8345C61.874 19.7725 63.463 19.6435 64.689 20.5165ZM61.783 30.7305C63.298 31.3065 63.92 30.9605 67.379 27.6265L69.978 25.1205L71.078 25.2665C74.528 25.7245 81.39 28.7385 85.333 31.5275C88.956 34.0915 93.771 39.3135 95.823 42.9045L96.262 43.6735L94.318 48.0535C93.248 50.4625 92.373 52.6865 92.373 52.9975C92.373 53.7145 92.843 54.8485 93.296 55.2235C93.487 55.3825 95.302 56.2565 97.329 57.1655L101.013 58.8195L101.158 59.7565C101.345 60.9775 101.37 63.9765 101.2 64.8285L101.067 65.4945H98.964C96.525 65.4945 96.713 65.2765 96.581 68.2685C96.485 70.4375 95.961 71.6365 94.769 72.4125C92.827 73.6795 89.62 73.4495 88.26 71.9465C88.051 71.7155 87.645 70.5545 87.357 69.3655C86.516 65.8925 85.386 63.9425 83.116 62.0455C82.399 61.4465 81.813 60.8875 81.813 60.8025C81.813 60.7185 82.601 60.0545 83.565 59.3295C87.075 56.6835 89.093 53.6035 89.315 50.5525C89.738 44.7335 85.102 39.3095 78.206 37.5515C76.571 37.1345 75.873 37.1215 55.646 37.1215C44.166 37.1215 34.773 37.0465 34.773 36.9555C34.773 36.7405 37.324 34.2645 38.827 33.0225C42.954 29.6105 48.315 26.9255 53.867 25.4915L55.787 24.9945L58.515 27.7605C60.016 29.2815 61.487 30.6175 61.783 30.7305M27.432 48.5275C28.689 49.3505 29.204 51.4185 28.462 52.6615C27.314 54.5855 24.406 54.6665 23.257 52.8065C21.586 50.1045 24.804 46.8055 27.432 48.5275M101.482 48.6325C104.77 50.6375 102.222 55.5695 98.702 54.0125C96.352 52.9725 96.277 49.7605 98.575 48.5885C99.534 48.0995 100.636 48.1165 101.482 48.6325ZM37.12 60.9085V73.1745H26.276L25.846 71.3085C25 67.6335 24.644 63.8315 24.857 60.7175L25.006 58.5295L28.734 56.8575C31.073 55.8095 32.577 55.0105 32.771 54.7135C33.619 53.4205 33.538 52.4965 32.348 49.8685L31.792 48.6415H37.12V60.9085M68.34 49.1755C70.662 49.7795 71.889 51.0085 71.892 52.7315C71.894 53.9965 71.267 54.7905 69.712 55.4925C68.611 55.9905 68.436 56.0025 61.493 56.0705L54.4 56.1385V48.8545H60.755C65.719 48.8545 67.38 48.9245 68.34 49.1755ZM65.944 66.7775C67.095 67.0975 68.456 68.0975 69.154 69.1365C69.887 70.2285 70.316 71.6485 71.332 76.3525C72.19 80.3285 72.742 81.6285 74.288 83.3205C76.203 85.4155 75.759 85.3345 85.325 85.3345C89.906 85.3345 93.653 85.4075 93.653 85.4975C93.653 85.6585 90.498 89.3885 90.362 89.3885C90.323 89.3885 88.675 89.0435 86.7 88.6215C81.123 87.4305 80.922 87.5705 79.642 93.5475L78.819 97.3875L78.076 97.7535C76.836 98.3655 72.806 99.6255 70.717 100.055C67.265 100.765 63.508 101.005 60.206 100.726C54.577 100.249 47.123 98.0655 46.832 96.8065C46.77 96.5395 46.395 94.8115 46 92.9655C45.604 91.1195 45.123 89.3685 44.931 89.0745C44.008 87.6665 43.037 87.5795 38.767 88.5245C37.15 88.8825 35.739 89.1745 35.631 89.1745C35.428 89.1745 32.427 85.7045 32.427 85.4705C32.427 85.3975 39.555 85.3125 48.267 85.2825L64.107 85.2285L64.164 79.6015C64.204 75.6285 64.149 73.8875 63.977 73.6815C63.785 73.4495 62.763 73.3885 59.067 73.3885H54.4V66.5615L59.787 66.5625C62.749 66.5635 65.52 66.6605 65.944 66.7775ZM41.536 92.3665C44.055 93.9015 42.847 97.9235 39.868 97.9205C36.813 97.9185 35.681 93.9335 38.284 92.3455C39.145 91.8205 40.658 91.8305 41.536 92.3665ZM87.662 92.5345C88.897 93.4395 89.308 95.3225 88.543 96.5765C86.534 99.8715 81.51 97.2525 83.188 93.7855C84.013 92.0825 86.206 91.4685 87.662 92.5345Z" fill="black"/>
</svg>
