<svg width="110" height="128" viewBox="0 0 110 128" fill="none" xmlns="http://www.w3.org/2000/svg">
<path d="M102.986 16.9361C90.7096 -0.075882 66.4607 -5.11788 48.9346 5.69612L18.144 24.6961C13.9786 27.2251 10.4045 30.5671 7.64933 34.5101C4.89417 38.4531 3.01988 42.9091 2.14589 47.5931C1.75649 49.6951 1.55831 51.8389 1.55464 53.9891C1.57355 59.8201 3.04996 65.5601 5.85753 70.7191C3.22527 74.5911 1.42831 78.9391 0.575815 83.5011C-0.297405 88.2692 -0.175104 93.2114 0.932455 97.9131C2.04105 102.646 4.11386 107.117 7.03058 111.065C19.3059 128.076 43.609 133.118 61.081 122.305L91.8397 103.304C96.0025 100.772 99.5724 97.4261 102.321 93.4791C105.068 89.5321 106.933 85.0721 107.795 80.3861C108.19 78.2791 108.389 76.1421 108.386 74.0001C108.378 68.1801 106.921 62.4491 104.137 57.2911C106.768 53.4221 108.565 49.0781 109.419 44.5201C109.801 42.4111 109.995 40.2751 110 38.1341C110.002 30.5391 107.549 23.1341 102.986 16.9561V16.9361V16.9361Z" fill="#FF3E00"/>
<path d="M45.9251 112.666C43.9027 113.17 41.8403 113.425 39.772 113.426C35.8232 113.427 31.9328 112.501 28.4343 110.726C24.9366 108.952 21.9348 106.383 19.6867 103.239C16.9418 99.5231 15.4672 95.0681 15.4697 90.4991C15.4714 89.2111 15.5865 87.9267 15.8135 86.6661C15.9982 85.7175 16.2468 84.7873 16.5568 83.8841L17.1378 82.1761L18.7079 83.3321C22.3542 85.9231 26.4285 87.8961 30.7563 89.1661L31.8975 89.4991L31.7901 90.6031V91.1761C31.7875 92.5571 32.2318 93.9061 33.0594 95.0301C33.728 95.9881 34.6286 96.7741 35.6822 97.3181C36.7613 97.869 37.9268 98.1539 39.1051 98.1551C39.7272 98.1575 40.3476 98.0808 40.9554 97.9261C41.6148 97.759 42.2519 97.4892 42.8494 97.1241L73.6065 78.0301C74.5286 77.4641 75.2883 76.6811 75.8133 75.7541C76.3376 74.8271 76.6108 73.7861 76.6074 72.7281C76.5988 71.3471 76.1433 70.0031 75.3054 68.8841C74.6265 67.9381 73.7208 67.1661 72.6663 66.6321C71.5866 66.093 70.4234 65.8173 69.2486 65.8221C68.6265 65.82 68.006 65.8971 67.3983 66.0521C66.7419 66.2153 66.1083 66.4849 65.5163 66.8531L53.7901 74.1031C51.8168 75.3061 49.7151 76.1993 47.5399 76.7591C45.529 77.2611 43.4622 77.5171 41.3859 77.5191C37.4379 77.5191 33.5493 76.5931 30.0516 74.8211C26.554 73.0491 23.5513 70.4831 21.3006 67.3431C18.5592 63.6251 17.0845 59.1711 17.0836 54.6031C17.0854 53.3181 17.2005 52.0361 17.4274 50.7701C17.9542 47.9541 19.0782 45.2751 20.7308 42.9031C22.3825 40.5301 24.5258 38.5161 27.024 36.9891L57.8137 17.9991C59.7456 16.8091 61.8528 15.9091 64.0639 15.3321C66.0749 14.8331 68.1417 14.5821 70.2171 14.5821C74.1745 14.5721 78.0752 15.4921 81.5849 17.2631C85.0946 19.0331 88.1076 21.6031 90.3668 24.7491C93.0919 28.4761 94.5477 32.9331 94.5305 37.4991C94.5286 38.7908 94.4131 40.0788 94.1859 41.3431C94.0015 42.2913 93.7532 43.2212 93.4434 44.1241L92.8625 45.8321L91.2924 44.7181C87.6486 42.1231 83.5735 40.1501 79.244 38.8841L78.1027 38.5411L78.2101 37.4361V36.8641C78.2101 35.4791 77.7667 34.1291 76.9408 32.9991C76.2628 32.0541 75.3596 31.2831 74.306 30.7491C73.2284 30.2098 72.0673 29.9331 70.8943 29.9361C70.2783 29.9491 69.6654 30.0399 69.0664 30.2071C68.4055 30.3675 67.768 30.6376 67.1732 31.0091L36.3835 49.9991C35.6531 50.4401 35.0072 51.049 34.4851 51.7891C33.9982 52.48 33.6574 53.2941 33.49 54.1661C33.4142 54.5283 33.3673 54.8979 33.3499 55.2701C33.349 56.6481 33.7925 57.9921 34.6192 59.1141C35.2964 60.0591 36.2004 60.8311 37.2532 61.3641C38.3307 61.9034 39.4919 62.1798 40.6649 62.1761C41.287 62.1782 41.9074 62.1011 42.5151 61.9461C43.1757 61.7841 43.8134 61.5145 44.4092 61.1451L56.1568 53.8531C58.1294 52.648 60.2314 51.7548 62.4071 51.1971C64.4295 50.6933 66.4919 50.4386 68.5602 50.4371C72.5099 50.4371 76.4003 51.3621 79.8997 53.1341C83.399 54.9061 86.4043 57.4731 88.6567 60.6141C91.3981 64.3311 92.8728 68.7851 92.8736 73.3541C92.8762 74.6531 92.7576 75.9501 92.5187 77.2281C91.9954 80.0451 90.8713 82.7251 89.2196 85.0981C87.567 87.4701 85.4229 89.4831 82.9221 91.0091L52.1865 109.999C50.2108 111.208 48.1054 112.105 45.926 112.666H45.9251Z" fill="white"/>
</svg>
