<svg width="128" height="128" viewBox="0 0 128 128" fill="none" xmlns="http://www.w3.org/2000/svg">
<path d="M16.2192 15.7619C16.0496 15.7649 15.883 15.8061 15.7315 15.8823C15.5801 15.9586 15.4478 16.068 15.3444 16.2024C15.2411 16.3368 15.1693 16.4927 15.1345 16.6587C15.0996 16.8246 15.1026 16.9962 15.1432 17.1609L39.5372 115.903C39.5845 116.095 39.6818 116.272 39.8191 116.415C39.9564 116.558 40.129 116.663 40.3195 116.718C40.51 116.773 40.7116 116.777 40.9041 116.729C41.0966 116.682 41.2732 116.584 41.4162 116.447L114.802 45.8569C114.945 45.7195 115.049 45.5468 115.104 45.3563C115.16 45.1658 115.163 44.9641 115.116 44.7716C115.068 44.5791 114.971 44.4025 114.833 44.2597C114.696 44.1168 114.523 44.0127 114.332 43.9579L16.5502 15.8059C16.4426 15.7749 16.3311 15.76 16.2192 15.7619V15.7619ZM17.8032 18.5159L111.827 45.5859L41.2612 113.463L17.8032 18.5159V18.5159Z" fill="white"/>
<path d="M65.1373 29.8401C64.9887 29.8369 64.8409 29.8631 64.7024 29.9171C64.5639 29.9712 64.4374 30.0521 64.3303 30.1551L27.6543 65.4601C27.5115 65.5976 27.4075 65.7703 27.3527 65.9607C27.2978 66.1512 27.2941 66.3527 27.3418 66.5451C27.3896 66.7374 27.4871 66.9138 27.6246 67.0566C27.7621 67.1993 27.9348 67.3033 28.1253 67.3581L76.9843 81.4401C77.1746 81.495 77.376 81.4988 77.5683 81.4513C77.7605 81.4037 77.9369 81.3064 78.0797 81.1691C78.2224 81.0318 78.3266 80.8593 78.3816 80.6691C78.4367 80.4788 78.4407 80.2774 78.3933 80.0851L66.2103 30.6981C66.1507 30.457 66.0133 30.2422 65.8193 30.0871C65.6253 29.932 65.3856 29.8452 65.1373 29.8401V29.8401ZM64.4863 33.1401L75.7343 78.7301L30.6303 65.7301L64.4863 33.1401Z" fill="white"/>
<path d="M46.9145 47.3126C46.7449 47.3157 46.5783 47.3569 46.4269 47.4331C46.2754 47.5094 46.1431 47.6188 46.0397 47.7532C45.9364 47.8876 45.8646 48.0435 45.8298 48.2094C45.7949 48.3754 45.7979 48.547 45.8385 48.7117L51.8925 73.2426C51.9399 73.4353 52.0372 73.6121 52.1747 73.7552C52.3121 73.8982 52.4849 74.0026 52.6755 74.0576C52.8661 74.1127 53.0679 74.1165 53.2605 74.0688C53.453 74.021 53.6296 73.9234 53.7725 73.7857L71.9945 56.2226C72.1372 56.0851 72.2412 55.9123 72.296 55.7218C72.3507 55.5313 72.3544 55.3297 72.3066 55.1373C72.2587 54.945 72.1611 54.7686 72.0234 54.6259C71.8858 54.4833 71.713 54.3794 71.5225 54.3247L47.2455 47.3566C47.1379 47.3257 47.0264 47.3108 46.9145 47.3126V47.3126ZM48.4975 50.0636L69.0195 55.9536L53.6145 70.7997L48.4975 50.0636V50.0636Z" fill="white"/>
<path d="M40.9018 22.8096C40.7531 22.8065 40.6053 22.8328 40.4668 22.8871C40.3283 22.9413 40.2019 23.0224 40.0948 23.1256L21.8728 40.6876C21.7301 40.8252 21.6261 40.9979 21.5713 41.1884C21.5165 41.3789 21.5129 41.5805 21.5607 41.7729C21.6086 41.9653 21.7062 42.1417 21.8438 42.2843C21.9815 42.427 22.1543 42.5309 22.3448 42.5856L46.6178 49.5546C46.8082 49.6093 47.0096 49.613 47.2018 49.5653C47.394 49.5176 47.5703 49.4202 47.713 49.2828C47.8556 49.1454 47.9596 48.9729 48.0145 48.7826C48.0695 48.5923 48.0733 48.3909 48.0258 48.1986L41.9748 23.6686C41.9156 23.4271 41.7784 23.2119 41.5843 23.0564C41.3903 22.9009 41.1504 22.8138 40.9018 22.8086V22.8096ZM40.2518 26.1096L45.3658 46.8456L24.8488 40.9556L40.2518 26.1086V26.1096ZM89.4528 36.7936C89.3043 36.7906 89.1566 36.817 89.0183 36.8713C88.88 36.9255 88.7538 37.0065 88.6468 37.1096L70.4228 54.6706C70.2798 54.8081 70.1756 54.9809 70.1207 55.1716C70.0658 55.3622 70.062 55.564 70.1099 55.7565C70.1577 55.9491 70.2555 56.1256 70.3933 56.2683C70.5311 56.4111 70.7041 56.515 70.8948 56.5696L95.1688 63.5376C95.3592 63.5923 95.5605 63.596 95.7528 63.5483C95.945 63.5006 96.1213 63.4031 96.264 63.2658C96.4066 63.1284 96.5106 62.9559 96.5655 62.7656C96.6205 62.5753 96.6243 62.3739 96.5768 62.1816L90.5268 37.6516C90.4674 37.4101 90.3299 37.195 90.1357 37.0397C89.9415 36.8844 89.7014 36.7975 89.4528 36.7926V36.7936ZM88.8028 40.0936L93.9168 60.8306L73.3998 54.9406L88.8028 40.0946V40.0936ZM52.9438 71.8646C52.6668 71.8752 52.4034 71.9873 52.2038 72.1796L33.9818 89.7426C33.8391 89.8802 33.7351 90.0529 33.6803 90.2434C33.6255 90.4339 33.6219 90.6355 33.6697 90.8279C33.7176 91.0203 33.8152 91.1967 33.9528 91.3393C34.0905 91.482 34.2633 91.5859 34.4538 91.6406L58.7318 98.6086C58.922 98.663 59.1231 98.6665 59.3151 98.6188C59.5071 98.571 59.6831 98.4736 59.8256 98.3364C59.9681 98.1992 60.072 98.0269 60.127 97.8369C60.182 97.6468 60.186 97.4457 60.1388 97.2536L54.0838 72.7226C54.0216 72.4702 53.8742 72.247 53.6665 72.0907C53.4588 71.9344 53.2036 71.8545 52.9438 71.8646V71.8646ZM52.3618 75.1646L57.4798 95.9016L36.9578 90.0116L52.3618 75.1656V75.1646Z" fill="white"/>
</svg>
