<svg width="187" height="187" viewBox="0 0 187 187" fill="none" xmlns="http://www.w3.org/2000/svg">
<mask id="mask0_136_66" style="mask-type:luminance" maskUnits="userSpaceOnUse" x="4" y="4" width="179" height="179">
<path d="M4.31055 4.3125H182.287V182.289H4.31055V4.3125Z" fill="white"/>
</mask>
<g mask="url(#mask0_136_66)">
<path d="M182.287 93.3006C182.287 94.7571 182.251 96.2121 182.179 97.6672C182.108 99.1217 182.001 100.573 181.858 102.023C181.715 103.472 181.537 104.917 181.323 106.358C181.109 107.798 180.861 109.233 180.577 110.661C180.292 112.089 179.974 113.51 179.62 114.923C179.266 116.336 178.878 117.739 178.455 119.132C178.032 120.526 177.575 121.909 177.085 123.28C176.594 124.651 176.07 126.009 175.513 127.355C174.956 128.7 174.365 130.031 173.743 131.348C173.12 132.664 172.466 133.965 171.779 135.249C171.093 136.533 170.375 137.8 169.626 139.049C168.877 140.299 168.099 141.529 167.289 142.74C166.48 143.95 165.642 145.141 164.775 146.311C163.907 147.481 163.011 148.628 162.087 149.754C161.163 150.88 160.213 151.982 159.234 153.061C158.256 154.14 157.252 155.195 156.222 156.224C155.193 157.254 154.138 158.258 153.059 159.236C151.98 160.215 150.878 161.165 149.752 162.089C148.626 163.013 147.479 163.909 146.309 164.776C145.139 165.644 143.949 166.482 142.737 167.291C141.527 168.1 140.297 168.879 139.048 169.628C137.798 170.377 136.531 171.095 135.247 171.781C133.963 172.468 132.662 173.122 131.346 173.745C130.029 174.367 128.698 174.957 127.353 175.515C126.007 176.072 124.649 176.596 123.278 177.087C121.907 177.577 120.524 178.034 119.131 178.457C117.737 178.88 116.334 179.268 114.921 179.622C113.508 179.976 112.087 180.294 110.659 180.578C109.231 180.863 107.796 181.111 106.356 181.325C104.915 181.539 103.47 181.717 102.021 181.86C100.571 182.003 99.1198 182.11 97.6647 182.181C96.2102 182.253 94.7551 182.289 93.2986 182.289C91.8421 182.289 90.3865 182.253 88.932 182.181C87.4774 182.11 86.0258 182.003 84.5761 181.86C83.1268 181.717 81.682 181.539 80.2415 181.325C78.8005 181.111 77.3664 180.863 75.938 180.578C74.5092 180.294 73.0891 179.976 71.6764 179.622C70.2636 179.268 68.8605 178.88 67.4667 178.457C66.0728 178.034 64.6906 177.577 63.3192 177.087C61.9482 176.596 60.5898 176.072 59.2445 175.515C57.8988 174.957 56.5676 174.367 55.251 173.745C53.9349 173.122 52.6344 172.468 51.3498 171.781C50.0653 171.095 48.7987 170.377 47.5497 169.628C46.3006 168.879 45.0705 168.1 43.8593 167.291C42.6487 166.482 41.4584 165.644 40.2885 164.776C39.1186 163.909 37.9711 163.013 36.845 162.089C35.7193 161.165 34.617 160.215 33.5379 159.236C32.4589 158.258 31.4042 157.254 30.3747 156.224C29.3448 155.195 28.3405 154.14 27.3626 153.061C26.3846 151.982 25.4338 150.88 24.5098 149.754C23.5858 148.628 22.6904 147.481 21.8227 146.311C20.955 145.141 20.1169 143.95 19.3076 142.74C18.4987 141.529 17.7199 140.299 16.9707 139.049C16.2221 137.8 15.5045 136.533 14.818 135.249C14.1315 133.965 13.4771 132.664 12.8543 131.348C12.2315 130.031 11.6417 128.7 11.0844 127.355C10.5272 126.009 10.003 124.651 9.5123 123.28C9.02162 121.909 8.56494 120.526 8.14227 119.132C7.7196 117.739 7.33142 116.336 6.97725 114.923C6.62357 113.51 6.30438 112.089 6.02017 110.661C5.73645 109.233 5.48722 107.798 5.27346 106.358C5.06018 104.917 4.88188 103.472 4.73905 102.023C4.59621 100.573 4.48933 99.1217 4.41791 97.6672C4.34601 96.2121 4.31055 94.7571 4.31055 93.3006C4.31055 91.844 4.34601 90.3885 4.41791 88.9339C4.48933 87.4794 4.59621 86.0277 4.73905 84.578C4.88188 83.1288 5.06018 81.6839 5.27346 80.2435C5.48722 78.8025 5.73645 77.3683 6.02017 75.94C6.30438 74.5112 6.62357 73.0911 6.97725 71.6783C7.33142 70.2655 7.7196 68.8625 8.14227 67.4686C8.56494 66.0748 9.02162 64.6926 9.5123 63.3211C10.003 61.9501 10.5272 60.5917 11.0844 59.2465C11.6417 57.9007 12.2315 56.5696 12.8543 55.253C13.4771 53.9369 14.1315 52.6363 14.818 51.3518C15.5045 50.0672 16.2221 48.8007 16.9707 47.5516C17.7199 46.3026 18.4987 45.0725 19.3076 43.8613C20.1169 42.6506 20.955 41.4603 21.8227 40.2905C22.6904 39.1206 23.5858 37.9731 24.5098 36.8469C25.4338 35.7212 26.3846 34.6189 27.3626 33.5399C28.3405 32.4609 29.3448 31.4061 30.3747 30.3767C31.4042 29.3467 32.4589 28.3425 33.5379 27.3645C34.617 26.3866 35.7193 25.4358 36.845 24.5118C37.9711 23.5877 39.1186 22.6923 40.2885 21.8246C41.4584 20.957 42.6487 20.1189 43.8593 19.3095C45.0705 18.5006 46.3006 17.7218 47.5497 16.9727C48.7987 16.224 50.0653 15.5065 51.3498 14.82C52.6344 14.1335 53.9349 13.4791 55.251 12.8563C56.5676 12.2334 57.8988 11.6436 59.2445 11.0864C60.5898 10.5291 61.9482 10.0049 63.3192 9.51426C64.6906 9.02357 66.0728 8.56689 67.4667 8.14422C68.8605 7.72155 70.2636 7.33338 71.6764 6.97921C73.0891 6.62552 74.5092 6.30634 75.938 6.02213C77.3664 5.7384 78.8005 5.48917 80.2415 5.27541C81.682 5.06213 83.1268 4.88383 84.5761 4.741C86.0258 4.59817 87.4774 4.49128 88.932 4.41987C90.3865 4.34797 91.8421 4.3125 93.2986 4.3125C94.7551 4.3125 96.2102 4.34797 97.6647 4.41987C99.1198 4.49128 100.571 4.59817 102.021 4.741C103.47 4.88383 104.915 5.06213 106.356 5.27541C107.796 5.48917 109.231 5.7384 110.659 6.02213C112.087 6.30634 113.508 6.62552 114.921 6.97921C116.334 7.33338 117.737 7.72155 119.131 8.14422C120.524 8.56689 121.907 9.02357 123.278 9.51426C124.649 10.0049 126.007 10.5291 127.353 11.0864C128.698 11.6436 130.029 12.2334 131.346 12.8563C132.662 13.4791 133.963 14.1335 135.247 14.82C136.531 15.5065 137.798 16.224 139.048 16.9727C140.297 17.7218 141.527 18.5006 142.737 19.3095C143.949 20.1189 145.139 20.957 146.309 21.8246C147.479 22.6923 148.626 23.5877 149.752 24.5118C150.878 25.4358 151.98 26.3866 153.059 27.3645C154.138 28.3425 155.193 29.3467 156.222 30.3767C157.252 31.4061 158.256 32.4609 159.234 33.5399C160.213 34.6189 161.163 35.7212 162.087 36.8469C163.011 37.9731 163.907 39.1206 164.775 40.2905C165.642 41.4603 166.48 42.6506 167.289 43.8613C168.099 45.0725 168.877 46.3026 169.626 47.5516C170.375 48.8007 171.093 50.0672 171.779 51.3518C172.466 52.6363 173.12 53.9369 173.743 55.253C174.365 56.5696 174.956 57.9007 175.513 59.2465C176.07 60.5917 176.594 61.9501 177.085 63.3211C177.575 64.6926 178.032 66.0748 178.455 67.4686C178.878 68.8625 179.266 70.2655 179.62 71.6783C179.974 73.0911 180.292 74.5112 180.577 75.94C180.861 77.3683 181.109 78.8025 181.323 80.2435C181.537 81.6839 181.715 83.1288 181.858 84.578C182.001 86.0277 182.108 87.4794 182.179 88.9339C182.251 90.3885 182.287 91.844 182.287 93.3006Z" fill="white"/>
</g>
<path d="M16.9736 93.2971C16.9736 123.52 34.5276 149.617 59.9966 161.991L23.5775 62.226C19.3386 71.7293 16.9736 82.211 16.9736 93.2971ZM144.83 89.4518C144.83 80.0238 141.44 73.4763 138.545 68.4087C134.672 62.0671 131.033 56.7886 131.033 50.5079C131.033 43.5202 136.376 36.9581 143.866 36.9581C144.203 36.9581 144.507 36.9863 144.844 36.9955C131.267 24.5234 113.174 16.9688 93.2971 16.9688C66.6242 16.9688 43.1593 30.6637 29.5114 51.3882C31.3099 51.4261 32.9914 51.4538 34.4386 51.4538C42.4004 51.4538 54.7793 50.5079 54.7793 50.5079C58.8821 50.2314 59.3835 56.2921 55.2525 56.7886C55.2525 56.7886 51.1307 57.2851 46.5362 57.5052L74.3377 140.203L91.0395 90.1169L79.1435 57.5052C75.0407 57.2851 71.139 56.7886 71.139 56.7886C67.027 56.5171 67.4997 50.227 71.6074 50.5079C71.6074 50.5079 84.2345 51.4538 91.7279 51.4538C99.7183 51.4538 112.073 50.5079 112.073 50.5079C116.181 50.2314 116.673 56.2921 112.566 56.7886C112.566 56.7886 108.411 57.2851 103.821 57.5052L131.393 139.557L139.023 114.134C142.901 104.215 144.83 96.0134 144.83 89.4518ZM94.6317 99.9573L71.7337 166.511C78.5814 168.548 85.8081 169.625 93.2971 169.625C102.177 169.625 110.701 168.08 118.654 165.298C118.471 164.961 118.251 164.614 118.097 164.244L94.6317 99.9573ZM160.286 56.6575C160.624 59.0881 160.806 61.7018 160.806 64.5026C160.806 72.2676 159.34 80.9746 154.989 91.878L131.684 159.303C154.376 146.076 169.626 121.464 169.626 93.302C169.626 80.033 166.23 67.5512 160.286 56.6575Z" fill="#01579B"/>
<mask id="mask1_136_66" style="mask-type:luminance" maskUnits="userSpaceOnUse" x="4" y="4" width="179" height="179">
<path d="M4.31055 4.3125H182.287V182.289H4.31055V4.3125Z" fill="white"/>
</mask>
<g mask="url(#mask1_136_66)">
<path d="M4.31055 93.3006C4.31055 142.352 44.2193 182.289 93.2986 182.289C142.378 182.289 182.287 142.352 182.287 93.3006C182.287 44.2495 142.378 4.3125 93.2986 4.3125C44.2193 4.3125 4.31055 44.2495 4.31055 93.3006ZM8.39004 93.3006C8.39004 46.5066 46.4673 8.42017 93.2937 8.42017C140.125 8.42017 178.202 46.5066 178.202 93.3006C178.202 140.094 140.125 178.191 93.2986 178.191C46.477 178.191 8.39004 140.094 8.39004 93.3006Z" fill="#01579B"/>
</g>
</svg>
